<?xml version="1.0" encoding="UTF-8"?>
<svg version="1.1" xmlns="http://www.w3.org/2000/svg" width="190" height="193">
<path d="M0 0 C1.051875 0.598125 2.10375 1.19625 3.1875 1.8125 C2.8575 3.7925 2.5275 5.7725 2.1875 7.8125 C-1.13222846 8.91907615 -3.88168436 9.02644703 -7.375 9.1875 C-25.17452293 10.47574274 -42.38117792 20.06942062 -54.8125 32.8125 C-63.24176563 42.93366124 -64.63529883 54.5533301 -66.3828125 67.23046875 C-66.8125 69.8125 -66.8125 69.8125 -67.8125 71.8125 C-67.72428349 73.81586847 -67.5693098 75.81662649 -67.375 77.8125 C-66.8125 83.73655063 -66.8125 83.73655063 -66.8125 85.8125 C-61.03398841 98.5760256 -51.36738219 107.10924521 -39.8125 114.8125 C-39.8125 115.4725 -39.8125 116.1325 -39.8125 116.8125 C-36.8425 117.1425 -33.8725 117.4725 -30.8125 117.8125 C-31.3075 119.7925 -31.3075 119.7925 -31.8125 121.8125 C-25.03264782 123.40775934 -18.27307714 124.60633089 -11.375 125.5625 C-9.91610352 125.78873047 -9.91610352 125.78873047 -8.42773438 126.01953125 C-2.19262551 126.87753554 4.28023915 127.41913814 10.1875 124.8125 C10.88546216 123.49527904 11.55486483 122.16231294 12.1875 120.8125 C15.234375 120.23828125 15.234375 120.23828125 18.9375 120.125 C27.50022121 119.80617527 32.76047795 118.87227616 39.875 114.1875 C40.57326904 113.74035645 41.27153809 113.29321289 41.9909668 112.83251953 C44.65505488 111.12375894 47.30376497 109.39219101 49.95019531 107.65625 C51.46449457 106.66314717 52.98212578 105.67513016 54.5 104.6875 C55.34175781 104.12804687 56.18351563 103.56859375 57.05078125 102.9921875 C59.1875 101.8125 59.1875 101.8125 62.1875 101.8125 C62.47625 101.19375 62.765 100.575 63.0625 99.9375 C64.1875 97.8125 64.1875 97.8125 66.1875 95.8125 C67.1775 95.8125 68.1675 95.8125 69.1875 95.8125 C66.09184936 104.09791789 61.46847892 111.90993286 55.4609375 118.41015625 C54.03439101 119.91127297 54.03439101 119.91127297 52.5625 122.25 C52.10875 122.765625 51.655 123.28125 51.1875 123.8125 C49.8675 123.8125 48.5475 123.8125 47.1875 123.8125 C46.8575 124.4725 46.5275 125.1325 46.1875 125.8125 C44.2075 125.3175 44.2075 125.3175 42.1875 124.8125 C43.1775 127.2875 43.1775 127.2875 44.1875 129.8125 C43.1975 129.8125 42.2075 129.8125 41.1875 129.8125 C37.86778316 130.8833764 37.12345058 131.91257722 35.1875 134.9375 C34.5275 135.88625 33.8675 136.835 33.1875 137.8125 C31.8675 137.8125 30.5475 137.8125 29.1875 137.8125 C28.8575 139.1325 28.5275 140.4525 28.1875 141.8125 C26.7025 140.8225 26.7025 140.8225 25.1875 139.8125 C22.44815639 140.10391953 19.93486326 140.5733282 17.31079102 141.41308594 C14.66005756 141.91171764 12.77994781 141.47858633 10.15234375 140.890625 C5.25610596 139.91869132 0.63271021 139.62650163 -4.34863281 139.58642578 C-13.35488289 139.51215681 -20.36195444 139.12197504 -28.22265625 134.30859375 C-31.87999962 132.19582978 -35.64545791 131.31974169 -39.73046875 130.35546875 C-41.8125 129.8125 -41.8125 129.8125 -42.8125 128.8125 C-44.53857444 128.54197385 -46.26855017 128.29616394 -48 128.0625 C-53.49678988 127.07863878 -56.13556673 126.04097326 -59.8125 121.8125 C-60.74101429 119.78952418 -61.46233581 117.81919657 -62.07421875 115.6796875 C-62.68836249 113.74180773 -62.68836249 113.74180773 -64.22167969 112.47875977 C-66.0757895 110.53672485 -66.92909288 108.74155317 -68.00390625 106.28515625 C-68.39126953 105.41052734 -68.77863281 104.53589844 -69.17773438 103.63476562 C-69.57283203 102.72404297 -69.96792969 101.81332031 -70.375 100.875 C-71.16735936 99.07395053 -71.96030687 97.27315967 -72.75390625 95.47265625 C-73.10138916 94.67480713 -73.44887207 93.87695801 -73.80688477 93.05493164 C-74.47551967 91.56393587 -75.19086398 90.09300014 -75.95141602 88.64672852 C-77.04436453 86.31859633 -76.72837166 85.1718427 -76.1875 82.6875 C-75.25953547 76.32883398 -78.03130932 71.37488137 -80.8125 65.8125 C-80.74683258 56.35639107 -79.04637185 46.19471666 -72.8125 38.8125 C-71.35151076 37.66399251 -69.87028528 36.54098582 -68.375 35.4375 C-65.33124544 33.18541666 -63.33068659 31.40771786 -61.5625 28.0625 C-57.91417952 21.62726805 -51.93011564 16.81164803 -45.8125 12.8125 C-42.28942795 11.94743841 -40.42847202 12.13833573 -36.8125 12.8125 C-36.544375 12.19375 -36.27625 11.575 -36 10.9375 C-34.49198364 8.23894442 -32.81202151 7.09751207 -29.83984375 6.25 C-28.44411966 5.95781103 -27.04828574 5.66614619 -25.65234375 5.375 C-23.58842886 4.90140893 -23.58842886 4.90140893 -21.8125 2.8125 C-21.24015625 2.99039062 -20.6678125 3.16828125 -20.078125 3.3515625 C-16.6939063 4.04007596 -14.65361026 2.61585664 -11.5625 1.1875 C-4.4449067 -1.74138563 -4.4449067 -1.74138563 0 0 Z " fill="#2C9ADB" transform="translate(98.8125,27.1875)"/>
<path d="M0 0 C11.08391875 0.09011316 20.85416744 3.97684498 29.0078125 11.515625 C33.65538673 16.48228642 37.46821288 22.0681999 41.39794922 27.60791016 C42.35932632 28.94343243 43.36174403 30.24942838 44.37890625 31.54296875 C48.29877133 36.84356242 48.58994183 42.72713165 49.16796875 49.1171875 C49.31134288 52.3987516 49.31134288 52.3987516 51.625 54.3125 C51.1640625 57.3515625 51.1640625 57.3515625 50.25 60.9375 C49.95351562 62.12601563 49.65703125 63.31453125 49.3515625 64.5390625 C49.11179687 65.45429687 48.87203125 66.36953125 48.625 67.3125 C47.965 67.3125 47.305 67.3125 46.625 67.3125 C46.604375 66.013125 46.58375 64.71375 46.5625 63.375 C46.02102627 58.10187894 43.6385596 55.16816856 40.21875 51.2578125 C38.625 49.3125 38.625 49.3125 37.625 46.3125 C37.728125 45.57 37.83125 44.8275 37.9375 44.0625 C37.50808919 40.28368492 35.55762639 38.80859443 33.02734375 36.09375 C31.09192948 33.6353965 30.77514002 31.39037039 30.625 28.3125 C29.93535156 28.56 29.24570313 28.8075 28.53515625 29.0625 C24.47152341 29.41159061 22.24282429 27.56425277 19.0625 25.3125 C17.81623568 24.47487651 16.56882 23.63896376 15.3203125 22.8046875 C14.69930664 22.38413086 14.07830078 21.96357422 13.43847656 21.53027344 C6.13901145 16.62858631 -0.43375754 13.03825152 -9.015625 11.06640625 C-12.53947231 9.94040868 -14.12360723 8.18496664 -16.375 5.3125 C-16.045 4.3225 -15.715 3.3325 -15.375 2.3125 C-13.32421875 2.08463542 -11.2734375 1.85677083 -9.22265625 1.62890625 C-5.91126674 1.06183955 -3.81216605 0.07855874 0 0 Z " fill="#2CA0E1" transform="translate(122.375,30.6875)"/>
<path d="M0 0 C4.87995132 2.26569169 7.63239735 5.17373306 10 10 C10.76960802 15.35839586 10.05885375 19.98154397 8 25 C7.34 25 6.68 25 6 25 C6 25.66 6 26.32 6 27 C0.70844843 30.52770105 -5.63743144 30.30984506 -11.8125 29.5 C-15.99734634 27.53066054 -18.45921528 24.82822933 -21 21 C-22.35358177 16.9392547 -22.82031176 13.24531048 -21.31640625 9.12890625 C-16.66167133 0.1477787 -9.54778127 -1.28527825 0 0 Z M-9.1875 5.25 C-11.95919481 7.92611913 -12.00018362 10.00280021 -12.25 13.8125 C-12.16748672 17.87815458 -11.50884495 20.68185023 -9 24 C-5.40614946 24.97873538 -5.40614946 24.97873538 -2 25 C0.04242247 21.61494922 0.29778231 18.92471691 0.3125 15 C0.32925781 13.96875 0.34601563 12.9375 0.36328125 11.875 C-0.04350003 8.65574169 -0.7865594 7.32681195 -3 5 C-5.74044078 3.67398027 -6.52161698 3.72663828 -9.1875 5.25 Z " fill="#AA5CC0" transform="translate(97,83)"/>
<path d="M0 0 C1.24652344 -0.00257812 2.49304688 -0.00515625 3.77734375 -0.0078125 C7.0625 0.125 7.0625 0.125 10.0625 1.125 C9.7325 4.095 9.4025 7.065 9.0625 10.125 C7.0825 10.125 5.1025 10.125 3.0625 10.125 C2.4025 8.475 1.7425 6.825 1.0625 5.125 C-0.5875 5.125 -2.2375 5.125 -3.9375 5.125 C-3.89382812 7.05312617 -3.89382812 7.05312617 -2.9375 9.125 C0.04697771 10.80404343 3.11853812 12.04944975 6.27734375 13.3671875 C9.0625 15.125 9.0625 15.125 10.484375 18.15234375 C11.16521506 21.65314973 10.80665566 23.05196384 9.0625 26.125 C7.72460938 27.74682617 7.72460938 27.74682617 6.0625 29.125 C3.14364448 29.39645356 0.47362363 29.49824966 -2.4375 29.4375 C-3.59572266 29.44233398 -3.59572266 29.44233398 -4.77734375 29.44726562 C-8.66181666 29.41023859 -10.64067851 29.32288099 -13.9375 27.125 C-14.34593923 24.41296348 -14.07086867 21.8812858 -13.9375 19.125 C-12.2875 18.795 -10.6375 18.465 -8.9375 18.125 C-5.9375 22.875 -5.9375 22.875 -5.9375 25.125 C-3.6275 25.125 -1.3175 25.125 1.0625 25.125 C1.0625 23.475 1.0625 21.825 1.0625 20.125 C0.47082031 19.95484375 -0.12085938 19.7846875 -0.73046875 19.609375 C-5.5532329 18.1302891 -9.23605998 16.71077002 -12.9375 13.125 C-14.37485246 10.25029507 -14.31922649 8.30605412 -13.9375 5.125 C-9.29252689 0.60226303 -6.35605321 -0.01311879 0 0 Z " fill="#C15CB1" transform="translate(62.9375,82.875)"/>
<path d="M0 0 C3.94268047 3.09782037 5.15376938 6.58717097 6.86328125 11.12109375 C8.13437561 14.34032587 9.55792889 17.44562305 11.0625 20.5625 C11.79146484 22.08037109 11.79146484 22.08037109 12.53515625 23.62890625 C13.83632913 26.3014884 13.83632913 26.3014884 17 27 C17 27.99 17 28.98 17 30 C11.39 30 5.78 30 0 30 C0 29.01 0 28.02 0 27 C0.99 27 1.98 27 3 27 C2.67 26.01 2.34 25.02 2 24 C-1.3 24 -4.6 24 -8 24 C-8.33 24.66 -8.66 25.32 -9 26 C-7.68 26.33 -6.36 26.66 -5 27 C-5.33 27.99 -5.66 28.98 -6 30 C-10.62 30 -15.24 30 -20 30 C-19 27 -19 27 -17.1640625 25.2734375 C-14.42688558 22.3979195 -12.96799934 19.20572418 -11.375 15.625 C-10.92640625 14.65433594 -10.92640625 14.65433594 -10.46875 13.6640625 C-9.09788776 10.65544449 -7.93611505 7.78672256 -6.984375 4.609375 C-6.65953125 3.74828125 -6.3346875 2.8871875 -6 2 C-2.875 0.625 -2.875 0.625 0 0 Z M-4 12 C-4.66 13.98 -5.32 15.96 -6 18 C-4.02 18 -2.04 18 0 18 C-0.66 16.02 -1.32 14.04 -2 12 C-2.66 12 -3.32 12 -4 12 Z " fill="#8A57CA" transform="translate(126,82)"/>
<path d="M0 0 C3.13061967 3.13061967 2.78251414 7.34527903 3.2109375 11.58984375 C3.58249329 15.73798951 3.58249329 15.73798951 6 19 C5.5390625 22.0390625 5.5390625 22.0390625 4.625 25.625 C4.32851562 26.81351563 4.03203125 28.00203125 3.7265625 29.2265625 C3.48679688 30.14179687 3.24703125 31.05703125 3 32 C2.34 32 1.68 32 1 32 C0.67 28.7 0.34 25.4 0 22 C0.99 21.67 1.98 21.34 3 21 C2.34 20.67 1.68 20.34 1 20 C0.67 13.4 0.34 6.8 0 0 Z " fill="#233070" transform="translate(168,66)"/>
<path d="M0 0 C0.33 0 0.66 0 1 0 C0.91621094 0.86882812 0.83242188 1.73765625 0.74609375 2.6328125 C0.64425781 3.78523438 0.54242187 4.93765625 0.4375 6.125 C0.33308594 7.26195313 0.22867187 8.39890625 0.12109375 9.5703125 C0.00354539 12.89958527 0.37663535 15.74003376 1 19 C1 19.99 1 20.98 1 22 C0.01 22 -0.98 22 -2 22 C-3.14459881 18.56620356 -2.69537511 17.47687554 -2 14 C-2.03172557 12.00128879 -2.06352334 10.00257779 -2.09765625 8.00390625 C-1.95738189 5.12547636 -1.06308479 2.65771198 0 0 Z " fill="#222363" transform="translate(31,92)"/>
</svg>
