<svg width="202" height="118" viewBox="0 0 202 118" fill="none" xmlns="http://www.w3.org/2000/svg">
<g clip-path="url(#clip0_2329_7)">
<path d="M202 0H0V118H202V0Z" fill="#20003F"/>
<g clip-path="url(#clip1_2329_7)">
<g clip-path="url(#clip2_2329_7)">
<g clip-path="url(#clip3_2329_7)">
<path d="M29.808 71.9608L31.7292 73.19L30.7686 71.5919C30.5283 70.8543 28.8474 71.7149 29.808 71.9608ZM31.9695 71.2232C32.6898 71.8378 33.4107 72.4524 33.4107 73.067C33.4107 73.9276 34.8519 74.2962 36.0522 74.5419C34.3708 73.5587 33.4102 70.8543 31.9695 71.2232ZM124.196 19.1062C128.279 19.1062 132.122 18.8603 136.445 19.3519C147.013 20.7041 155.899 23.4082 161.904 27.2187L178.716 40.9855C179.437 44.4272 180.878 48.2377 180.638 52.4169C182.319 52.4169 182.079 51.1877 184 50.9418C182.079 53.4002 181.118 56.4732 180.638 60.0378C179.437 58.071 180.638 55.121 180.878 53.5232C179.196 54.8753 178.236 53.8918 178.236 53.2772C178.476 52.294 177.516 52.4167 176.795 52.048C174.153 50.8188 172.472 49.4667 170.55 47.3772C171.751 45.7793 171.992 43.4439 168.149 42.2147C166.948 41.8461 165.507 41.2315 164.786 40.248C163.826 38.8958 162.144 37.2979 162.624 35.2085C162.865 34.5939 159.022 36.5606 156.86 35.7001C147.493 32.3814 138.126 28.5709 126.838 25.3749C120.834 25.3749 116.511 24.2687 114.349 22.9165C112.428 21.6873 113.869 20.0895 116.751 19.9665C118.433 19.9665 120.354 19.7206 121.795 20.2125C122.035 19.7208 122.996 19.1062 124.196 19.1062ZM100.419 16.2789L100.9 16.4019C103.302 16.6478 104.502 18.3687 107.144 17.7541C107.144 18.6146 107.384 19.4749 106.904 20.0895C106.183 21.0727 104.021 21.0727 102.34 21.0727C86.2488 20.5811 76.882 24.0227 67.0351 26.9728C64.393 27.8333 61.5112 28.4479 59.3492 29.5541C49.0217 34.4709 37.7337 39.0188 35.0916 48.1148L32.9301 58.194C32.6898 59.3002 30.2881 60.4064 30.7686 61.7586L32.4496 67.7816C30.7681 66.9211 29.8075 68.0275 30.2881 68.5192C30.5283 68.8878 31.489 70.117 32.9301 69.0108C34.8513 70.8546 36.7731 74.4192 39.4146 76.017C47.5806 80.9338 58.1483 85.3587 66.7948 89.7839C68.9563 89.5379 70.6378 89.5379 71.1178 88.8003C71.8382 89.5379 70.3975 90.2755 69.1966 90.3985C73.0396 91.6277 77.3626 92.7339 83.1267 92.9796C90.5724 93.2255 97.5374 93.8401 104.022 94.7006C107.384 94.209 110.747 93.9631 114.349 93.8401C115.55 93.8401 116.271 92.8568 117.712 92.6109L117.952 91.3817C119.393 92.4879 119.153 91.0131 118.192 90.2755C119.874 91.0131 120.354 91.6277 121.074 92.1193C121.074 91.7506 122.995 90.3985 122.996 91.9963L123.476 90.3985C124.196 90.1525 124.437 91.7506 125.157 90.6441C125.878 89.5379 127.319 90.3982 128.76 90.0295C128.279 90.5212 128.52 91.5047 130.201 90.8901L132.122 90.0295C133.323 91.5047 135.245 90.8901 136.205 90.6441C146.773 87.2025 157.341 83.1463 167.428 79.09L167.188 80.6879L168.388 78.7211C169.589 79.3357 170.55 78.8441 171.03 78.4754C172.472 77.2462 174.393 76.017 177.516 74.9108C173.673 80.1963 169.109 84.3755 163.345 87.8171L160.943 89.2922C160.943 90.1528 160.463 91.259 158.542 91.3817C157.581 91.5047 155.659 91.1358 154.219 91.8733C153.498 92.365 155.9 93.3485 153.978 92.6109C152.297 91.9963 150.616 92.6109 148.694 92.8568C147.253 93.1028 149.655 93.8401 150.135 94.3317C150.616 94.8233 151.096 95.315 150.856 95.9298L148.214 94.4547C145.092 95.3152 143.17 96.9131 140.528 98.1423C139.327 98.6339 139.808 99.4944 139.808 100.232C138.126 100.232 136.205 99.9858 135.245 100.478C134.524 100.969 134.764 101.707 134.764 102.444C132.362 102.321 132.122 100.478 129.961 100.846C127.799 101.092 125.398 101.215 123.476 101.83C124.917 103.305 121.074 102.444 121.555 102.69C117.952 101.584 114.83 100.723 110.987 101.461C102.821 100.109 92.7339 100.723 85.2882 101.215C85.2882 100.601 85.5285 99.9861 85.048 99.8631C84.5674 100.478 83.1267 100.232 83.367 100.232C78.8037 98.6339 74.2405 97.6504 69.4369 96.2985C65.1139 96.5444 61.0307 95.4379 59.8298 94.8233C56.4674 93.2255 52.6244 94.0858 49.5023 93.7171C42.7775 92.8566 40.3757 89.292 39.6549 86.8338C39.1743 85.6047 37.2531 85.113 36.5328 85.2357C33.4107 80.0733 28.6071 75.4024 24.7642 70.6086C23.8036 69.3794 24.0438 68.1503 24.0438 66.7981C25.2447 67.044 26.4456 66.9211 26.2053 66.0608C25.0045 62.0045 22.1226 58.9316 19 55.9815C20.6815 51.8023 20.9212 46.8856 24.7642 43.198C28.1266 39.8793 34.3713 38.1582 38.6943 35.3312C40.1355 34.3479 40.1355 32.9958 41.5766 32.1355C46.3802 29.6771 51.1838 27.0957 56.4674 24.8833C58.8692 23.9 61.751 24.8833 65.3537 24.5146C66.5545 22.3022 71.3581 20.3354 75.9214 20.95C77.8426 21.196 81.6856 18.6146 82.8865 18.3687C84.8077 18 83.8471 19.3519 83.8471 20.2125C88.4103 18.3687 94.6551 17.3854 100.419 16.2789Z" fill="#2EB1F2"/>
</g>
<mask id="mask0_2329_7" style="mask-type:luminance" maskUnits="userSpaceOnUse" x="19" y="12" width="165" height="95">
<g clip-path="url(#clip4_2329_7)">
<g clip-path="url(#clip5_2329_7)">
<path d="M29.808 71.9608L31.7292 73.19L30.7686 71.5919C30.5283 70.8543 28.8474 71.7149 29.808 71.9608ZM31.9695 71.2232C32.6898 71.8378 33.4107 72.4524 33.4107 73.067C33.4107 73.9276 34.8519 74.2962 36.0522 74.5419C34.3708 73.5587 33.4102 70.8543 31.9695 71.2232ZM124.196 19.1062C128.279 19.1062 132.122 18.8603 136.445 19.3519C147.013 20.7041 155.899 23.4082 161.904 27.2187L178.716 40.9855C179.437 44.4272 180.878 48.2377 180.638 52.4169C182.319 52.4169 182.079 51.1877 184 50.9418C182.079 53.4002 181.118 56.4732 180.638 60.0378C179.437 58.071 180.638 55.121 180.878 53.5232C179.196 54.8753 178.236 53.8918 178.236 53.2772C178.476 52.294 177.516 52.4167 176.795 52.048C174.153 50.8188 172.472 49.4667 170.55 47.3772C171.751 45.7793 171.992 43.4439 168.149 42.2147C166.948 41.8461 165.507 41.2315 164.786 40.248C163.826 38.8958 162.144 37.2979 162.624 35.2085C162.865 34.5939 159.022 36.5606 156.86 35.7001C147.493 32.3814 138.126 28.5709 126.838 25.3749C120.834 25.3749 116.511 24.2687 114.349 22.9165C112.428 21.6873 113.869 20.0895 116.751 19.9665C118.433 19.9665 120.354 19.7206 121.795 20.2125C122.035 19.7208 122.996 19.1062 124.196 19.1062ZM100.419 16.2789L100.9 16.4019C103.302 16.6478 104.502 18.3687 107.144 17.7541C107.144 18.6146 107.384 19.4749 106.904 20.0895C106.183 21.0727 104.021 21.0727 102.34 21.0727C86.2488 20.5811 76.882 24.0227 67.0351 26.9728C64.393 27.8333 61.5112 28.4479 59.3492 29.5541C49.0217 34.4709 37.7337 39.0188 35.0916 48.1148L32.9301 58.194C32.6898 59.3002 30.2881 60.4064 30.7686 61.7586L32.4496 67.7816C30.7681 66.9211 29.8075 68.0275 30.2881 68.5192C30.5283 68.8878 31.489 70.117 32.9301 69.0108C34.8513 70.8546 36.7731 74.4192 39.4146 76.017C47.5806 80.9338 58.1483 85.3587 66.7948 89.7839C68.9563 89.5379 70.6378 89.5379 71.1178 88.8003C71.8382 89.5379 70.3975 90.2755 69.1966 90.3985C73.0396 91.6277 77.3626 92.7339 83.1267 92.9796C90.5724 93.2255 97.5374 93.8401 104.022 94.7006C107.384 94.209 110.747 93.9631 114.349 93.8401C115.55 93.8401 116.271 92.8568 117.712 92.6109L117.952 91.3817C119.393 92.4879 119.153 91.0131 118.192 90.2755C119.874 91.0131 120.354 91.6277 121.074 92.1193C121.074 91.7506 122.995 90.3985 122.996 91.9963L123.476 90.3985C124.196 90.1525 124.437 91.7506 125.157 90.6441C125.878 89.5379 127.319 90.3982 128.76 90.0295C128.279 90.5212 128.52 91.5047 130.201 90.8901L132.122 90.0295C133.323 91.5047 135.245 90.8901 136.205 90.6441C146.773 87.2025 157.341 83.1463 167.428 79.09L167.188 80.6879L168.388 78.7211C169.589 79.3357 170.55 78.8441 171.03 78.4754C172.472 77.2462 174.393 76.017 177.516 74.9108C173.673 80.1963 169.109 84.3755 163.345 87.8171L160.943 89.2922C160.943 90.1528 160.463 91.259 158.542 91.3817C157.581 91.5047 155.659 91.1358 154.219 91.8733C153.498 92.365 155.9 93.3485 153.978 92.6109C152.297 91.9963 150.616 92.6109 148.694 92.8568C147.253 93.1028 149.655 93.8401 150.135 94.3317C150.616 94.8233 151.096 95.315 150.856 95.9298L148.214 94.4547C145.092 95.3152 143.17 96.9131 140.528 98.1423C139.327 98.6339 139.808 99.4944 139.808 100.232C138.126 100.232 136.205 99.9858 135.245 100.478C134.524 100.969 134.764 101.707 134.764 102.444C132.362 102.321 132.122 100.478 129.961 100.846C127.799 101.092 125.398 101.215 123.476 101.83C124.917 103.305 121.074 102.444 121.555 102.69C117.952 101.584 114.83 100.723 110.987 101.461C102.821 100.109 92.7339 100.723 85.2882 101.215C85.2882 100.601 85.5285 99.9861 85.048 99.8631C84.5674 100.478 83.1267 100.232 83.367 100.232C78.8037 98.6339 74.2405 97.6504 69.4369 96.2985C65.1139 96.5444 61.0307 95.4379 59.8298 94.8233C56.4674 93.2255 52.6244 94.0858 49.5023 93.7171C42.7775 92.8566 40.3757 89.292 39.6549 86.8338C39.1743 85.6047 37.2531 85.113 36.5328 85.2357C33.4107 80.0733 28.6071 75.4024 24.7642 70.6086C23.8036 69.3794 24.0438 68.1503 24.0438 66.7981C25.2447 67.044 26.4456 66.9211 26.2053 66.0608C25.0045 62.0045 22.1226 58.9316 19 55.9815C20.6815 51.8023 20.9212 46.8856 24.7642 43.198C28.1266 39.8793 34.3713 38.1582 38.6943 35.3312C40.1355 34.3479 40.1355 32.9958 41.5766 32.1355C46.3802 29.6771 51.1838 27.0957 56.4674 24.8833C58.8692 23.9 61.751 24.8833 65.3537 24.5146C66.5545 22.3022 71.3581 20.3354 75.9214 20.95C77.8426 21.196 81.6856 18.6146 82.8865 18.3687C84.8077 18 83.8471 19.3519 83.8471 20.2125C88.4103 18.3687 94.6551 17.3854 100.419 16.2789Z" fill="black"/>
<g clip-path="url(#clip6_2329_7)">
<g clip-path="url(#clip7_2329_7)">
<g clip-path="url(#clip8_2329_7)">
<g clip-path="url(#clip9_2329_7)">
<g clip-path="url(#clip10_2329_7)">
<g clip-path="url(#clip11_2329_7)">
<path d="M77.6785 63.2658C77.6785 64.837 76.4705 66.1043 74.0545 67.0675C71.6318 68.0341 68.485 68.5174 64.614 68.5174C62.5784 68.5174 60.386 68.3808 58.0367 68.1076C55.6808 67.8343 53.6852 67.45 52.0501 66.9548L52.1001 66.9035L52.0501 66.135C52.0501 64.5296 52.3504 63.1548 52.9511 62.0105H57.0056L60.2592 65.7251C62.1613 66.0667 64.0968 66.2545 66.0656 66.2887C67.8676 65.8617 68.7686 65.2213 68.7686 64.3674C68.7686 63.5135 67.634 62.7791 65.3648 62.1643L59.2581 60.6528L57.3059 60.0892C53.7686 58.9962 52 57.5701 52 55.8111C52 54.2569 53.2514 52.9931 55.7542 52.0196C58.257 51.0462 61.4939 50.5594 65.465 50.5594C69.2024 50.5594 72.7731 50.8839 76.1769 51.5329C76.0434 53.5994 75.693 55.2304 75.1257 56.4259H70.5206L68.5684 53.3005C66.8999 52.959 64.9644 52.7711 62.762 52.7369C61.2603 53.1981 60.5095 53.8385 60.5095 54.6583C60.5095 55.2219 61.0367 55.6949 62.0912 56.0775C63.139 56.4635 64.8576 56.9246 67.2469 57.4608C69.6296 58.0005 71.5317 58.5095 72.9533 58.9877C74.3682 59.4659 75.5095 60.0499 76.3771 60.7399C77.2447 61.4333 77.6785 62.2753 77.6785 63.2658ZM96.5495 50.5594C101.422 50.5594 105.433 51.4168 108.583 53.1315C111.74 54.8495 113.318 57.0663 113.318 59.7818C113.318 62.429 111.8 64.5501 108.763 66.1452C105.726 67.7438 101.772 68.5431 96.8999 68.5431C91.9611 68.5431 87.9132 67.7267 84.7564 66.094C81.6062 64.4647 80.0311 62.3265 80.0311 59.6793C80.0311 56.998 81.5829 54.8069 84.6863 53.1058C87.7898 51.4082 91.7442 50.5594 96.5495 50.5594ZM92.7953 53.3774C91.8276 53.8214 91.0434 54.5592 90.4427 55.5908C89.842 56.6257 89.5417 57.8178 89.5417 59.167C89.5417 61.2506 90.2658 62.9191 91.7141 64.1727C93.1691 65.4297 95.198 66.0581 97.8009 66.0581C98.6351 66.0581 99.4194 65.9898 100.154 65.8532C101.255 65.3238 102.139 64.5211 102.806 63.4451C103.474 62.3692 103.808 61.1737 103.808 59.8587C103.808 57.8434 103.09 56.2039 101.655 54.9401C100.22 53.6763 98.3014 53.0444 95.8988 53.0444C94.8977 53.0444 93.8632 53.1554 92.7953 53.3774ZM147.396 66.3912L151 66.673L150.96 68.0307H133.981L133.681 67.2109C134.622 66.8694 135.957 66.4851 137.685 66.0581L135.933 63.6245H124.921L122.919 66.3143L127.224 66.673L127.174 68.0307H113.158L112.858 67.2109C114.026 66.8011 115.43 66.4083 117.072 66.0325L127.784 52.532L127.033 51.4817L134.842 50.457L147.396 66.3912ZM126.473 61.4726H134.341L130.427 56.0929L126.473 61.4726Z" fill="white"/>
</g>
</g>
</g>
</g>
</g>
</g>
</g>
</g>
</mask>
<g mask="url(#mask0_2329_7)">
<path d="M184 12H19V107H184V12Z" fill="url(#paint0_linear_2329_7)"/>
</g>
</g>
</g>
</g>
<defs>
<linearGradient id="paint0_linear_2329_7" x1="19" y1="64.06" x2="183.999" y2="64.6332" gradientUnits="userSpaceOnUse">
<stop stop-color="#FF6CAB"/>
<stop offset="1" stop-color="#7366FF"/>
</linearGradient>
<clipPath id="clip0_2329_7">
<rect width="202" height="118" fill="white"/>
</clipPath>
<clipPath id="clip1_2329_7">
<rect width="165" height="95" fill="white" transform="translate(19 12)"/>
</clipPath>
<clipPath id="clip2_2329_7">
<rect width="165" height="95" fill="white" transform="translate(19 12)"/>
</clipPath>
<clipPath id="clip3_2329_7">
<rect width="165" height="95" fill="white" transform="translate(19 12)"/>
</clipPath>
<clipPath id="clip4_2329_7">
<rect width="165" height="95" fill="white" transform="translate(19 12)"/>
</clipPath>
<clipPath id="clip5_2329_7">
<rect width="165" height="95" fill="white" transform="translate(19 12)"/>
</clipPath>
<clipPath id="clip6_2329_7">
<rect width="99" height="18.4195" fill="white" transform="translate(52 50.2903)"/>
</clipPath>
<clipPath id="clip7_2329_7">
<rect width="99" height="18.4195" fill="white" transform="translate(52 50.2903)"/>
</clipPath>
<clipPath id="clip8_2329_7">
<rect width="99" height="18.4195" fill="white" transform="translate(52 50.2903)"/>
</clipPath>
<clipPath id="clip9_2329_7">
<rect width="99" height="18.4195" fill="white" transform="translate(52 50.2903)"/>
</clipPath>
<clipPath id="clip10_2329_7">
<rect width="99" height="18.4195" fill="white" transform="translate(52 50.2903)"/>
</clipPath>
<clipPath id="clip11_2329_7">
<rect width="99" height="18.4195" fill="white" transform="translate(52 50.2903)"/>
</clipPath>
</defs>
</svg>
