<svg width="202" height="93" viewBox="0 0 202 93" fill="none" xmlns="http://www.w3.org/2000/svg">
<g clip-path="url(#clip0_2329_7)">
<path d="M202 0H0V93H202V0Z" fill="#20003F"/>
<g clip-path="url(#clip1_2329_7)">
<g clip-path="url(#clip2_2329_7)">
<g clip-path="url(#clip3_2329_7)">
<path d="M29.808 56.7149L31.7292 57.6837L30.7686 56.4241C30.5283 55.8428 28.8474 56.521 29.808 56.7149ZM31.9695 56.1336C32.6898 56.618 33.4107 57.1024 33.4107 57.5867C33.4107 58.265 34.8519 58.5555 36.0522 58.7491C34.3708 57.9742 33.4102 55.8428 31.9695 56.1336ZM124.196 15.0583C128.279 15.0583 132.122 14.8645 136.445 15.2519C147.013 16.3176 155.899 18.4488 161.904 21.452L178.716 32.3022C179.437 35.0146 180.878 38.0179 180.638 41.3117C182.319 41.3117 182.079 40.3429 184 40.1491C182.079 42.0866 181.118 44.5085 180.638 47.3179C179.437 45.7678 180.638 43.4428 180.878 42.1835C179.196 43.2492 178.236 42.4741 178.236 41.9897C178.476 41.2147 177.516 41.3115 176.795 41.0209C174.153 40.0521 172.472 38.9864 170.55 37.3397C171.751 36.0803 171.992 34.2397 168.149 33.2709C166.948 32.9804 165.507 32.496 164.786 31.7209C163.826 30.6552 162.144 29.3959 162.624 27.7491C162.865 27.2647 159.022 28.8148 156.86 28.1365C147.493 25.521 138.126 22.5177 126.838 19.9989C120.834 19.9989 116.511 19.127 114.349 18.0613C112.428 17.0926 113.869 15.8333 116.751 15.7363C118.433 15.7363 120.354 15.5425 121.795 15.9302C122.035 15.5427 122.996 15.0583 124.196 15.0583ZM100.419 12.83L100.9 12.9269C103.302 13.1208 104.502 14.477 107.144 13.9926C107.144 14.6709 107.384 15.3489 106.904 15.8333C106.183 16.6082 104.021 16.6082 102.34 16.6082C86.2488 16.2207 76.882 18.9332 67.0351 21.2582C64.393 21.9364 61.5112 22.4208 59.3492 23.2927C49.0217 27.1678 37.7337 30.7521 35.0916 37.921L32.9301 45.8648C32.6898 46.7366 30.2881 47.6085 30.7686 48.6742L32.4496 53.4211C30.7681 52.7429 29.8075 53.6149 30.2881 54.0024C30.5283 54.293 31.489 55.2617 32.9301 54.3899C34.8513 55.843 36.7731 58.6524 39.4146 59.9118C47.5806 63.7868 58.1483 67.2743 66.7948 70.7619C68.9563 70.568 70.6378 70.568 71.1178 69.9867C71.8382 70.568 70.3975 71.1493 69.1966 71.2463C73.0396 72.215 77.3626 73.0869 83.1267 73.2805C90.5724 73.4743 97.5374 73.9587 104.022 74.637C107.384 74.2495 110.747 74.0557 114.349 73.9587C115.55 73.9587 116.271 73.1838 117.712 72.99L117.952 72.0212C119.393 72.893 119.153 71.7306 118.192 71.1493C119.874 71.7306 120.354 72.215 121.074 72.6025C121.074 72.3119 122.995 71.2463 122.996 72.5056L123.476 71.2463C124.196 71.0524 124.437 72.3119 125.157 71.4399C125.878 70.568 127.319 71.2461 128.76 70.9555C128.279 71.343 128.52 72.1181 130.201 71.6337L132.122 70.9555C133.323 72.1181 135.245 71.6337 136.205 71.4399C146.773 68.7274 157.341 65.5305 167.428 62.3337L167.188 63.593L168.388 62.0429C169.589 62.5273 170.55 62.1398 171.03 61.8493C172.472 60.8805 174.393 59.9118 177.516 59.0399C173.673 63.2055 169.109 66.4993 163.345 69.2118L160.943 70.3744C160.943 71.0526 160.463 71.9245 158.542 72.0212C157.581 72.1181 155.659 71.8274 154.219 72.4087C153.498 72.7961 155.9 73.5713 153.978 72.99C152.297 72.5056 150.616 72.99 148.694 73.1838C147.253 73.3776 149.655 73.9587 150.135 74.3462C150.616 74.7337 151.096 75.1211 150.856 75.6057L148.214 74.4431C145.092 75.1213 143.17 76.3807 140.528 77.3494C139.327 77.7369 139.808 78.4151 139.808 78.9962C138.126 78.9962 136.205 78.8024 135.245 79.1901C134.524 79.5775 134.764 80.1588 134.764 80.7401C132.362 80.6432 132.122 79.1901 129.961 79.4806C127.799 79.6744 125.398 79.7712 123.476 80.2558C124.917 81.4184 121.074 80.7401 121.555 80.9338C117.952 80.0619 114.83 79.3837 110.987 79.965C102.821 78.8993 92.7339 79.3837 85.2882 79.7714C85.2882 79.287 85.5285 78.8026 85.048 78.7057C84.5674 79.1901 83.1267 78.9962 83.367 78.9962C78.8037 77.7369 74.2405 76.9618 69.4369 75.8963C65.1139 76.0901 61.0307 75.2181 59.8298 74.7337C56.4674 73.4743 52.6244 74.1524 49.5023 73.8618C42.7775 73.1836 40.3757 70.3742 39.6549 68.4369C39.1743 67.4681 37.2531 67.0806 36.5328 67.1773C33.4107 63.1086 28.6071 59.4274 24.7642 55.6492C23.8036 54.6804 24.0438 53.7117 24.0438 52.646C25.2447 52.8398 26.4456 52.7429 26.2053 52.0649C25.0045 48.868 22.1226 46.4461 19 44.1211C20.6815 40.8273 20.9212 36.9522 24.7642 34.0459C28.1266 31.4303 34.3713 30.0739 38.6943 27.8458C40.1355 27.0708 40.1355 26.0051 41.5766 25.3271C46.3802 23.3896 51.1838 21.3551 56.4674 19.6114C58.8692 18.8365 61.751 19.6114 65.3537 19.3209C66.5545 17.5772 71.3581 16.0271 75.9214 16.5115C77.8426 16.7053 81.6856 14.6709 82.8865 14.477C84.8077 14.1865 83.8471 15.2519 83.8471 15.9302C88.4103 14.477 94.6551 13.7021 100.419 12.83Z" fill="#2EB1F2"/>
</g>
<mask id="mask0_2329_7" style="mask-type:luminance" maskUnits="userSpaceOnUse" x="19" y="9" width="165" height="76">
<g clip-path="url(#clip4_2329_7)">
<g clip-path="url(#clip5_2329_7)">
<path d="M29.808 56.7149L31.7292 57.6837L30.7686 56.4241C30.5283 55.8428 28.8474 56.521 29.808 56.7149ZM31.9695 56.1336C32.6898 56.618 33.4107 57.1024 33.4107 57.5867C33.4107 58.265 34.8519 58.5555 36.0522 58.7491C34.3708 57.9742 33.4102 55.8428 31.9695 56.1336ZM124.196 15.0583C128.279 15.0583 132.122 14.8645 136.445 15.2519C147.013 16.3176 155.899 18.4488 161.904 21.452L178.716 32.3022C179.437 35.0146 180.878 38.0179 180.638 41.3117C182.319 41.3117 182.079 40.3429 184 40.1491C182.079 42.0866 181.118 44.5085 180.638 47.3179C179.437 45.7678 180.638 43.4428 180.878 42.1835C179.196 43.2492 178.236 42.4741 178.236 41.9897C178.476 41.2147 177.516 41.3115 176.795 41.0209C174.153 40.0521 172.472 38.9864 170.55 37.3397C171.751 36.0803 171.992 34.2397 168.149 33.2709C166.948 32.9804 165.507 32.496 164.786 31.7209C163.826 30.6552 162.144 29.3959 162.624 27.7491C162.865 27.2647 159.022 28.8148 156.86 28.1365C147.493 25.521 138.126 22.5177 126.838 19.9989C120.834 19.9989 116.511 19.127 114.349 18.0613C112.428 17.0926 113.869 15.8333 116.751 15.7363C118.433 15.7363 120.354 15.5425 121.795 15.9302C122.035 15.5427 122.996 15.0583 124.196 15.0583ZM100.419 12.83L100.9 12.9269C103.302 13.1208 104.502 14.477 107.144 13.9926C107.144 14.6709 107.384 15.3489 106.904 15.8333C106.183 16.6082 104.021 16.6082 102.34 16.6082C86.2488 16.2207 76.882 18.9332 67.0351 21.2582C64.393 21.9364 61.5112 22.4208 59.3492 23.2927C49.0217 27.1678 37.7337 30.7521 35.0916 37.921L32.9301 45.8648C32.6898 46.7366 30.2881 47.6085 30.7686 48.6742L32.4496 53.4211C30.7681 52.7429 29.8075 53.6149 30.2881 54.0024C30.5283 54.293 31.489 55.2617 32.9301 54.3899C34.8513 55.843 36.7731 58.6524 39.4146 59.9118C47.5806 63.7868 58.1483 67.2743 66.7948 70.7619C68.9563 70.568 70.6378 70.568 71.1178 69.9867C71.8382 70.568 70.3975 71.1493 69.1966 71.2463C73.0396 72.215 77.3626 73.0869 83.1267 73.2805C90.5724 73.4743 97.5374 73.9587 104.022 74.637C107.384 74.2495 110.747 74.0557 114.349 73.9587C115.55 73.9587 116.271 73.1838 117.712 72.99L117.952 72.0212C119.393 72.893 119.153 71.7306 118.192 71.1493C119.874 71.7306 120.354 72.215 121.074 72.6025C121.074 72.3119 122.995 71.2463 122.996 72.5056L123.476 71.2463C124.196 71.0524 124.437 72.3119 125.157 71.4399C125.878 70.568 127.319 71.2461 128.76 70.9555C128.279 71.343 128.52 72.1181 130.201 71.6337L132.122 70.9555C133.323 72.1181 135.245 71.6337 136.205 71.4399C146.773 68.7274 157.341 65.5305 167.428 62.3337L167.188 63.593L168.388 62.0429C169.589 62.5273 170.55 62.1398 171.03 61.8493C172.472 60.8805 174.393 59.9118 177.516 59.0399C173.673 63.2055 169.109 66.4993 163.345 69.2118L160.943 70.3744C160.943 71.0526 160.463 71.9245 158.542 72.0212C157.581 72.1181 155.659 71.8274 154.219 72.4087C153.498 72.7961 155.9 73.5713 153.978 72.99C152.297 72.5056 150.616 72.99 148.694 73.1838C147.253 73.3776 149.655 73.9587 150.135 74.3462C150.616 74.7337 151.096 75.1211 150.856 75.6057L148.214 74.4431C145.092 75.1213 143.17 76.3807 140.528 77.3494C139.327 77.7369 139.808 78.4151 139.808 78.9962C138.126 78.9962 136.205 78.8024 135.245 79.1901C134.524 79.5775 134.764 80.1588 134.764 80.7401C132.362 80.6432 132.122 79.1901 129.961 79.4806C127.799 79.6744 125.398 79.7712 123.476 80.2558C124.917 81.4184 121.074 80.7401 121.555 80.9338C117.952 80.0619 114.83 79.3837 110.987 79.965C102.821 78.8993 92.7339 79.3837 85.2882 79.7714C85.2882 79.287 85.5285 78.8026 85.048 78.7057C84.5674 79.1901 83.1267 78.9962 83.367 78.9962C78.8037 77.7369 74.2405 76.9618 69.4369 75.8963C65.1139 76.0901 61.0307 75.2181 59.8298 74.7337C56.4674 73.4743 52.6244 74.1524 49.5023 73.8618C42.7775 73.1836 40.3757 70.3742 39.6549 68.4369C39.1743 67.4681 37.2531 67.0806 36.5328 67.1773C33.4107 63.1086 28.6071 59.4274 24.7642 55.6492C23.8036 54.6804 24.0438 53.7117 24.0438 52.646C25.2447 52.8398 26.4456 52.7429 26.2053 52.0649C25.0045 48.868 22.1226 46.4461 19 44.1211C20.6815 40.8273 20.9212 36.9522 24.7642 34.0459C28.1266 31.4303 34.3713 30.0739 38.6943 27.8458C40.1355 27.0708 40.1355 26.0051 41.5766 25.3271C46.3802 23.3896 51.1838 21.3551 56.4674 19.6114C58.8692 18.8365 61.751 19.6114 65.3537 19.3209C66.5545 17.5772 71.3581 16.0271 75.9214 16.5115C77.8426 16.7053 81.6856 14.6709 82.8865 14.477C84.8077 14.1865 83.8471 15.2519 83.8471 15.9302C88.4103 14.477 94.6551 13.7021 100.419 12.83Z" fill="black"/>
<g clip-path="url(#clip6_2329_7)">
<g clip-path="url(#clip7_2329_7)">
<g clip-path="url(#clip8_2329_7)">
<g clip-path="url(#clip9_2329_7)">
<g clip-path="url(#clip10_2329_7)">
<g clip-path="url(#clip11_2329_7)">
<path d="M77.6785 49.8621C77.6785 51.1004 76.4705 52.0991 74.0545 52.8583C71.6318 53.6201 68.485 54.0011 64.614 54.0011C62.5784 54.0011 60.386 53.8934 58.0367 53.678C55.6808 53.4627 53.6852 53.1598 52.0501 52.7695L52.1001 52.7291L52.0501 52.1234C52.0501 50.8581 52.3504 49.7746 52.9511 48.8728H57.0056L60.2592 51.8003C62.1613 52.0695 64.0968 52.2176 66.0656 52.2445C67.8676 51.908 68.7686 51.4033 68.7686 50.7303C68.7686 50.0572 67.634 49.4785 65.3648 48.9939L59.2581 47.8027L57.3059 47.3585C53.7686 46.497 52 45.3731 52 43.9867C52 42.7618 53.2514 41.7658 55.7542 40.9986C58.257 40.2313 61.4939 39.8477 65.465 39.8477C69.2024 39.8477 72.7731 40.1035 76.1769 40.615C76.0434 42.2436 75.693 43.5291 75.1257 44.4713H70.5206L68.5684 42.0081C66.8999 41.7389 64.9644 41.5908 62.762 41.5639C61.2603 41.9273 60.5095 42.4321 60.5095 43.0782C60.5095 43.5223 61.0367 43.8952 62.0912 44.1967C63.139 44.5009 64.8576 44.8643 67.2469 45.287C69.6296 45.7123 71.5317 46.1134 72.9533 46.4903C74.3682 46.8672 75.5095 47.3275 76.3771 47.8713C77.2447 48.4178 77.6785 49.0814 77.6785 49.8621ZM96.5495 39.8477C101.422 39.8477 105.433 40.5234 108.583 41.8748C111.74 43.2289 113.318 44.976 113.318 47.1162C113.318 49.2025 111.8 50.8743 108.763 52.1315C105.726 53.3913 101.772 54.0213 96.8999 54.0213C91.9611 54.0213 87.9132 53.3779 84.7564 52.0911C81.6062 50.807 80.0311 49.1218 80.0311 47.0354C80.0311 44.9222 81.5829 43.1953 84.6863 41.8546C87.7898 40.5167 91.7442 39.8477 96.5495 39.8477ZM92.7953 42.0687C91.8276 42.4186 91.0434 43.0001 90.4427 43.8131C89.842 44.6288 89.5417 45.5683 89.5417 46.6316C89.5417 48.2738 90.2658 49.5888 91.7141 50.5768C93.1691 51.5675 95.198 52.0628 97.8009 52.0628C98.6351 52.0628 99.4194 52.009 100.154 51.9013C101.255 51.484 102.139 50.8514 102.806 50.0034C103.474 49.1554 103.808 48.2132 103.808 47.1768C103.808 45.5885 103.09 44.2963 101.655 43.3003C100.22 42.3042 98.3014 41.8062 95.8988 41.8062C94.8977 41.8062 93.8632 41.8937 92.7953 42.0687ZM147.396 52.3253L151 52.5474L150.96 53.6175H133.981L133.681 52.9714C134.622 52.7022 135.957 52.3993 137.685 52.0628L135.933 50.1447H124.921L122.919 52.2647L127.224 52.5474L127.174 53.6175H113.158L112.858 52.9714C114.026 52.6483 115.43 52.3387 117.072 52.0426L127.784 41.4024L127.033 40.5746L134.842 39.767L147.396 52.3253ZM126.473 48.4488H134.341L130.427 44.2088L126.473 48.4488Z" fill="white"/>
</g>
</g>
</g>
</g>
</g>
</g>
</g>
</g>
</mask>
<g mask="url(#mask0_2329_7)">
<path d="M184 9.45764H19V84.3305H184V9.45764Z" fill="url(#paint0_linear_2329_7)"/>
</g>
</g>
</g>
</g>
<defs>
<linearGradient id="paint0_linear_2329_7" x1="19" y1="50.488" x2="183.997" y2="51.2152" gradientUnits="userSpaceOnUse">
<stop stop-color="#FF6CAB"/>
<stop offset="1" stop-color="#7366FF"/>
</linearGradient>
<clipPath id="clip0_2329_7">
<rect width="202" height="93" fill="white"/>
</clipPath>
<clipPath id="clip1_2329_7">
<rect width="165" height="74.8729" fill="white" transform="translate(19 9.45764)"/>
</clipPath>
<clipPath id="clip2_2329_7">
<rect width="165" height="74.8729" fill="white" transform="translate(19 9.45764)"/>
</clipPath>
<clipPath id="clip3_2329_7">
<rect width="165" height="74.8729" fill="white" transform="translate(19 9.45764)"/>
</clipPath>
<clipPath id="clip4_2329_7">
<rect width="165" height="74.8729" fill="white" transform="translate(19 9.45764)"/>
</clipPath>
<clipPath id="clip5_2329_7">
<rect width="165" height="74.8729" fill="white" transform="translate(19 9.45764)"/>
</clipPath>
<clipPath id="clip6_2329_7">
<rect width="99" height="14.5171" fill="white" transform="translate(52 39.6356)"/>
</clipPath>
<clipPath id="clip7_2329_7">
<rect width="99" height="14.5171" fill="white" transform="translate(52 39.6356)"/>
</clipPath>
<clipPath id="clip8_2329_7">
<rect width="99" height="14.5171" fill="white" transform="translate(52 39.6356)"/>
</clipPath>
<clipPath id="clip9_2329_7">
<rect width="99" height="14.5171" fill="white" transform="translate(52 39.6356)"/>
</clipPath>
<clipPath id="clip10_2329_7">
<rect width="99" height="14.5171" fill="white" transform="translate(52 39.6356)"/>
</clipPath>
<clipPath id="clip11_2329_7">
<rect width="99" height="14.5171" fill="white" transform="translate(52 39.6356)"/>
</clipPath>
</defs>
</svg>
