<svg width="207" height="147" viewBox="0 0 207 147" fill="none" xmlns="http://www.w3.org/2000/svg">
<g filter="url(#filter0_i_1_8)">
<path d="M19.104 52.864C15.408 52.864 12.144 52.24 9.312 50.992C6.48 49.696 4.248 47.872 2.616 45.52C0.984 43.12 0.144 40.216 0.0960001 36.808H9.816C9.912 39.16 10.752 41.152 12.336 42.784C13.968 44.368 16.2 45.16 19.032 45.16C21.48 45.16 23.424 44.584 24.864 43.432C26.304 42.232 27.024 40.648 27.024 38.68C27.024 36.616 26.376 35.008 25.08 33.856C23.832 32.704 22.152 31.768 20.04 31.048C17.928 30.328 15.672 29.56 13.272 28.744C9.384 27.4 6.408 25.672 4.344 23.56C2.328 21.448 1.32 18.64 1.32 15.136C1.272 12.16 1.968 9.616 3.408 7.504C4.896 5.344 6.912 3.688 9.456 2.536C12 1.336 14.928 0.735999 18.24 0.735999C21.6 0.735999 24.552 1.336 27.096 2.536C29.688 3.736 31.704 5.416 33.144 7.576C34.632 9.736 35.424 12.304 35.52 15.28H25.656C25.608 13.504 24.912 11.944 23.568 10.6C22.272 9.208 20.448 8.512 18.096 8.512C16.08 8.464 14.376 8.968 12.984 10.024C11.64 11.032 10.968 12.52 10.968 14.488C10.968 16.168 11.496 17.512 12.552 18.52C13.608 19.48 15.048 20.296 16.872 20.968C18.696 21.64 20.784 22.36 23.136 23.128C25.632 23.992 27.912 25 29.976 26.152C32.04 27.304 33.696 28.84 34.944 30.76C36.192 32.632 36.816 35.056 36.816 38.032C36.816 40.672 36.144 43.12 34.8 45.376C33.456 47.632 31.464 49.456 28.824 50.848C26.184 52.192 22.944 52.864 19.104 52.864Z" fill="url(#paint0_angular_1_8)"/>
<path d="M54.4853 52V34.072L37.5653 1.6H48.0053L59.1653 24.856L70.2533 1.6H80.5493L63.7013 34.072V52H54.4853Z" fill="url(#paint1_linear_1_8)"/>
<path d="M85.2293 52V1.6H118.133V9.016H94.4453V22.84H115.973V30.04H94.4453V44.584H118.133V52H85.2293Z" fill="url(#paint2_angular_1_8)"/>
<path d="M125.63 52V1.6H142.838C148.742 1.6 153.59 2.656 157.382 4.768C161.222 6.832 164.054 9.76 165.878 13.552C167.75 17.296 168.686 21.712 168.686 26.8C168.686 31.888 167.75 36.328 165.878 40.12C164.054 43.864 161.222 46.792 157.382 48.904C153.59 50.968 148.742 52 142.838 52H125.63ZM134.846 44.08H142.406C146.63 44.08 149.966 43.408 152.414 42.064C154.862 40.672 156.614 38.704 157.67 36.16C158.726 33.568 159.254 30.448 159.254 26.8C159.254 23.2 158.726 20.104 157.67 17.512C156.614 14.92 154.862 12.928 152.414 11.536C149.966 10.144 146.63 9.448 142.406 9.448H134.846V44.08Z" fill="url(#paint3_radial_1_8)"/>
<path d="M25.512 146.864C20.472 146.864 16.056 145.76 12.264 143.552C8.52 141.344 5.568 138.296 3.408 134.408C1.296 130.472 0.24 125.936 0.24 120.8C0.24 115.664 1.296 111.152 3.408 107.264C5.568 103.328 8.52 100.256 12.264 98.048C16.056 95.84 20.472 94.736 25.512 94.736C30.504 94.736 34.896 95.84 38.688 98.048C42.48 100.256 45.432 103.328 47.544 107.264C49.656 111.152 50.712 115.664 50.712 120.8C50.712 125.936 49.656 130.472 47.544 134.408C45.432 138.296 42.48 141.344 38.688 143.552C34.896 145.76 30.504 146.864 25.512 146.864ZM25.512 138.584C30.312 138.584 34.128 137 36.96 133.832C39.84 130.664 41.28 126.32 41.28 120.8C41.28 115.28 39.84 110.936 36.96 107.768C34.128 104.6 30.312 103.016 25.512 103.016C20.712 103.016 16.872 104.6 13.992 107.768C11.112 110.936 9.672 115.28 9.672 120.8C9.672 126.32 11.112 130.664 13.992 133.832C16.872 137 20.712 138.584 25.512 138.584ZM57.6251 146V95.6H68.5691L84.6251 127.568L100.465 95.6H111.409V146H102.193V111.224L88.1531 138.8H80.8811L66.8411 111.224V146H57.6251ZM116.724 146L135.156 95.6H145.524L163.956 146H154.164L150.132 134.336H130.476L126.372 146H116.724ZM132.996 127.136H147.612L140.268 106.184L132.996 127.136ZM169.224 146V95.6H187.728C191.76 95.6 195.072 96.296 197.664 97.688C200.304 99.032 202.272 100.88 203.568 103.232C204.864 105.536 205.512 108.104 205.512 110.936C205.512 114.008 204.696 116.816 203.064 119.36C201.48 121.904 198.984 123.752 195.576 124.904L206.016 146H195.432L186.072 126.128H178.44V146H169.224ZM178.44 119.36H187.152C190.224 119.36 192.48 118.616 193.92 117.128C195.36 115.64 196.08 113.672 196.08 111.224C196.08 108.824 195.36 106.904 193.92 105.464C192.528 104.024 190.248 103.304 187.08 103.304H178.44V119.36Z" fill="white"/>
</g>
<path d="M9.312 50.992L9.10392 51.4467L9.11037 51.4495L9.312 50.992ZM2.616 45.52L2.20252 45.8012L2.20521 45.805L2.616 45.52ZM0.0960001 36.808V36.308H-0.411092L-0.40395 36.815L0.0960001 36.808ZM9.816 36.808L10.3156 36.7876L10.296 36.308H9.816V36.808ZM12.336 42.784L11.9772 43.1322L11.9824 43.1376L11.9878 43.1428L12.336 42.784ZM24.864 43.432L25.1764 43.8225L25.1841 43.8161L24.864 43.432ZM25.08 33.856L24.7408 34.2235L24.7478 34.2297L25.08 33.856ZM20.04 31.048L19.8787 31.5213L19.8787 31.5213L20.04 31.048ZM13.272 28.744L13.1086 29.2166L13.111 29.2174L13.272 28.744ZM4.344 23.56L3.9823 23.9053L3.98641 23.9095L4.344 23.56ZM1.32 15.136H1.82007L1.81994 15.1279L1.32 15.136ZM3.408 7.504L2.99624 7.22034L2.99489 7.22233L3.408 7.504ZM9.456 2.536L9.66228 2.99153L9.66931 2.98821L9.456 2.536ZM27.096 2.536L26.8827 2.98822L26.8859 2.98973L27.096 2.536ZM33.144 7.576L32.7279 7.85338L32.7322 7.85965L33.144 7.576ZM35.52 15.28V15.78H36.0364L36.0197 15.2639L35.52 15.28ZM25.656 15.28L25.1562 15.2935L25.1693 15.78H25.656V15.28ZM23.568 10.6L23.2021 10.9407L23.2081 10.9472L23.2144 10.9535L23.568 10.6ZM18.096 8.512L18.0841 9.012H18.096V8.512ZM12.984 10.024L13.284 10.424L13.2862 10.4223L12.984 10.024ZM12.552 18.52L12.2067 18.8818L12.2157 18.89L12.552 18.52ZM16.872 20.968L17.0449 20.4988L17.0449 20.4988L16.872 20.968ZM23.136 23.128L23.2996 22.6554L23.2912 22.6527L23.136 23.128ZM29.976 26.152L30.2197 25.7154L30.2197 25.7154L29.976 26.152ZM34.944 30.76L34.5248 31.0325L34.528 31.0373L34.944 30.76ZM34.8 45.376L35.2296 45.6319L35.2296 45.6319L34.8 45.376ZM28.824 50.848L29.0509 51.2936L29.0572 51.2903L28.824 50.848ZM19.104 52.364C15.4642 52.364 12.271 51.7496 9.51363 50.5345L9.11037 51.4495C12.017 52.7304 15.3518 53.364 19.104 53.364V52.364ZM9.52006 50.5373C6.76222 49.2753 4.6032 47.5068 3.02679 45.235L2.20521 45.805C3.8928 48.2372 6.19778 50.1167 9.10394 51.4467L9.52006 50.5373ZM3.02946 45.2388C1.46154 42.9331 0.642817 40.1285 0.595951 36.801L-0.40395 36.815C-0.354817 40.3035 0.506462 43.3069 2.20254 45.8012L3.02946 45.2388ZM0.0960001 37.308H9.816V36.308H0.0960001V37.308ZM9.31642 36.8284C9.41724 39.2985 10.3043 41.4087 11.9772 43.1322L12.6948 42.4358C11.1997 40.8953 10.4068 39.0215 10.3156 36.7876L9.31642 36.8284ZM11.9878 43.1428C13.7347 44.8383 16.1035 45.66 19.032 45.66V44.66C16.2965 44.66 14.2013 43.8977 12.6842 42.4252L11.9878 43.1428ZM19.032 45.66C21.5563 45.66 23.6224 45.0656 25.1763 43.8224L24.5517 43.0416C23.2256 44.1024 21.4037 44.66 19.032 44.66V45.66ZM25.1841 43.8161C26.7445 42.5158 27.524 40.7879 27.524 38.68H26.524C26.524 40.5081 25.8635 41.9482 24.5439 43.0479L25.1841 43.8161ZM27.524 38.68C27.524 36.5029 26.8353 34.7473 25.4122 33.4823L24.7478 34.2297C25.9167 35.2687 26.524 36.7291 26.524 38.68H27.524ZM25.4191 33.4886C24.1065 32.2769 22.3596 31.3105 20.2013 30.5747L19.8787 31.5213C21.9444 32.2255 23.5575 33.1311 24.7409 34.2234L25.4191 33.4886ZM20.2013 30.5747C18.0892 29.8547 15.8331 29.0867 13.433 28.2706L13.111 29.2174C15.5109 30.0333 17.7668 30.8013 19.8787 31.5213L20.2013 30.5747ZM13.4354 28.2714C9.59362 26.9434 6.69425 25.2495 4.70159 23.2105L3.98641 23.9095C6.12175 26.0945 9.17438 27.8566 13.1086 29.2166L13.4354 28.2714ZM4.70568 23.2148C2.7957 21.2138 1.82 18.5388 1.82 15.136H0.82C0.82 18.7412 1.8603 21.6822 3.98232 23.9052L4.70568 23.2148ZM1.81994 15.1279C1.77332 12.2377 2.4484 9.79898 3.82111 7.78567L2.99489 7.22233C1.4876 9.43302 0.770682 12.0823 0.820065 15.1441L1.81994 15.1279ZM3.81975 7.78765C5.25279 5.70744 7.19553 4.10848 9.66225 2.99147L9.24975 2.08052C6.62847 3.26751 4.53921 4.98056 2.99625 7.22035L3.81975 7.78765ZM9.66931 2.98821C12.1358 1.82478 14.9888 1.236 18.24 1.236V0.235999C14.8672 0.235999 11.8642 0.847213 9.24269 2.08378L9.66931 2.98821ZM18.24 1.236C21.5404 1.236 24.4171 1.82521 26.8827 2.98821L27.3093 2.08378C24.6869 0.846786 21.6596 0.235999 18.24 0.235999V1.236ZM26.8859 2.98973C29.403 4.15504 31.3441 5.77756 32.728 7.85335L33.56 7.29865C32.0639 5.05444 29.973 3.31696 27.3061 2.08226L26.8859 2.98973ZM32.7322 7.85965C34.1588 9.93045 34.9269 12.4026 35.0203 15.2961L36.0197 15.2639C35.9211 12.2054 35.1052 9.54155 33.5558 7.29234L32.7322 7.85965ZM35.52 14.78H25.656V15.78H35.52V14.78ZM26.1558 15.2665C26.1041 13.3531 25.3491 11.674 23.9216 10.2464L23.2144 10.9535C24.4749 12.214 25.1119 13.6549 25.1562 15.2935L26.1558 15.2665ZM23.9339 10.2593C22.5218 8.74251 20.5516 8.012 18.096 8.012V9.012C20.3444 9.012 22.0222 9.67348 23.2021 10.9407L23.9339 10.2593ZM18.1079 8.01214C15.997 7.96188 14.1776 8.49094 12.6818 9.62565L13.2862 10.4223C14.5744 9.44506 16.163 8.96612 18.0841 9.01186L18.1079 8.01214ZM12.684 9.624C11.1915 10.7434 10.468 12.3932 10.468 14.488H11.468C11.468 12.6468 12.0885 11.3206 13.284 10.424L12.684 9.624ZM10.468 14.488C10.468 16.2821 11.0367 17.7648 12.2068 18.8817L12.8972 18.1583C11.9553 17.2592 11.468 16.0539 11.468 14.488H10.468ZM12.2157 18.89C13.3331 19.9058 14.8353 20.7505 16.6991 21.4372L17.0449 20.4988C15.2607 19.8415 13.8829 19.0542 12.8883 18.15L12.2157 18.89ZM16.6991 21.4372C18.5303 22.1118 20.6244 22.8339 22.9808 23.6033L23.2912 22.6527C20.9436 21.8861 18.8617 21.1682 17.0449 20.4988L16.6991 21.4372ZM22.9724 23.6005C25.4439 24.456 27.6967 25.4524 29.7323 26.5886L30.2197 25.7154C28.1273 24.5476 25.8201 23.528 23.2996 22.6555L22.9724 23.6005ZM29.7323 26.5886C31.7277 27.7023 33.3225 29.1829 34.5248 31.0325L35.3632 30.4875C34.0695 28.4971 32.3523 26.9057 30.2197 25.7154L29.7323 26.5886ZM34.528 31.0373C35.7061 32.8045 36.316 35.1234 36.316 38.032H37.316C37.316 34.9886 36.6779 32.4595 35.36 30.4826L34.528 31.0373ZM36.316 38.032C36.316 40.5824 35.6681 42.9419 34.3705 45.1201L35.2296 45.6319C36.6199 43.2981 37.316 40.7616 37.316 38.032H36.316ZM34.3705 45.1201C33.0797 47.2867 31.1608 49.0506 28.5908 50.4057L29.0572 51.2903C31.7672 49.8614 33.8323 47.9773 35.2296 45.6319L34.3705 45.1201ZM28.5972 50.4024C26.0451 51.7016 22.8877 52.364 19.104 52.364V53.364C23.0003 53.364 26.3229 52.6824 29.0508 51.2936L28.5972 50.4024ZM54.4853 52H53.9853V52.5H54.4853V52ZM54.4853 34.072H54.9853V33.9495L54.9287 33.841L54.4853 34.072ZM37.5653 1.6V1.1H36.7409L37.1218 1.83104L37.5653 1.6ZM48.0053 1.6L48.456 1.38368L48.3199 1.1H48.0053V1.6ZM59.1653 24.856L58.7145 25.0723L59.1667 26.0147L59.6166 25.0712L59.1653 24.856ZM70.2533 1.6V1.1H69.9377L69.8019 1.38481L70.2533 1.6ZM80.5493 1.6L80.9931 1.83027L81.372 1.1H80.5493V1.6ZM63.7013 34.072L63.2574 33.8417L63.2013 33.95V34.072H63.7013ZM63.7013 52V52.5H64.2013V52H63.7013ZM54.9853 52V34.072H53.9853V52H54.9853ZM54.9287 33.841L38.0087 1.36895L37.1218 1.83104L54.0418 34.303L54.9287 33.841ZM37.5653 2.1H48.0053V1.1H37.5653V2.1ZM47.5545 1.81632L58.7145 25.0723L59.616 24.6397L48.456 1.38368L47.5545 1.81632ZM59.6166 25.0712L70.7046 1.81518L69.8019 1.38481L58.7139 24.6408L59.6166 25.0712ZM70.2533 2.1H80.5493V1.1H70.2533V2.1ZM80.1054 1.36972L63.2574 33.8417L64.1451 34.3023L80.9931 1.83027L80.1054 1.36972ZM63.2013 34.072V52H64.2013V34.072H63.2013ZM63.7013 51.5H54.4853V52.5H63.7013V51.5ZM85.2293 52H84.7293V52.5H85.2293V52ZM85.2293 1.6V1.1H84.7293V1.6H85.2293ZM118.133 1.6H118.633V1.1H118.133V1.6ZM118.133 9.016V9.516H118.633V9.016H118.133ZM94.4453 9.016V8.516H93.9453V9.016H94.4453ZM94.4453 22.84H93.9453V23.34H94.4453V22.84ZM115.973 22.84H116.473V22.34H115.973V22.84ZM115.973 30.04V30.54H116.473V30.04H115.973ZM94.4453 30.04V29.54H93.9453V30.04H94.4453ZM94.4453 44.584H93.9453V45.084H94.4453V44.584ZM118.133 44.584H118.633V44.084H118.133V44.584ZM118.133 52V52.5H118.633V52H118.133ZM85.7293 52V1.6H84.7293V52H85.7293ZM85.2293 2.1H118.133V1.1H85.2293V2.1ZM117.633 1.6V9.016H118.633V1.6H117.633ZM118.133 8.516H94.4453V9.516H118.133V8.516ZM93.9453 9.016V22.84H94.9453V9.016H93.9453ZM94.4453 23.34H115.973V22.34H94.4453V23.34ZM115.473 22.84V30.04H116.473V22.84H115.473ZM115.973 29.54H94.4453V30.54H115.973V29.54ZM93.9453 30.04V44.584H94.9453V30.04H93.9453ZM94.4453 45.084H118.133V44.084H94.4453V45.084ZM117.633 44.584V52H118.633V44.584H117.633ZM118.133 51.5H85.2293V52.5H118.133V51.5ZM125.63 52H125.13V52.5H125.63V52ZM125.63 1.6V1.1H125.13V1.6H125.63ZM157.382 4.768L157.139 5.20487L157.146 5.20841L157.382 4.768ZM165.878 13.552L165.428 13.7688L165.431 13.7756L165.878 13.552ZM165.878 40.12L165.43 39.8987L165.429 39.901L165.878 40.12ZM157.382 48.904L157.621 49.3432L157.623 49.3421L157.382 48.904ZM134.846 44.08H134.346V44.58H134.846V44.08ZM152.414 42.064L152.655 42.5023L152.661 42.4986L152.414 42.064ZM157.67 36.16L158.132 36.3517L158.133 36.3486L157.67 36.16ZM157.67 17.512L157.207 17.7006L157.207 17.7006L157.67 17.512ZM134.846 9.448V8.948H134.346V9.448H134.846ZM126.13 52V1.6H125.13V52H126.13ZM125.63 2.1H142.838V1.1H125.63V2.1ZM142.838 2.1C148.686 2.1 153.443 3.14651 157.139 5.20482L157.626 4.33118C153.737 2.16548 148.798 1.1 142.838 1.1V2.1ZM157.146 5.20841C160.896 7.22427 163.651 10.0756 165.428 13.7687L166.329 13.3353C164.457 9.44435 161.549 6.43972 157.619 4.32759L157.146 5.20841ZM165.431 13.7756C167.262 17.4368 168.186 21.7731 168.186 26.8H169.186C169.186 21.6509 168.239 17.1552 166.325 13.3284L165.431 13.7756ZM168.186 26.8C168.186 31.8266 167.262 36.1881 165.43 39.8987L166.327 40.3413C168.239 36.4679 169.186 31.9494 169.186 26.8H168.186ZM165.429 39.901C163.652 43.5472 160.896 46.4009 157.141 48.4659L157.623 49.3421C161.549 47.1831 164.456 44.1808 166.328 40.339L165.429 39.901ZM157.143 48.4648C153.447 50.4769 148.688 51.5 142.838 51.5V52.5C148.796 52.5 153.734 51.4591 157.621 49.3432L157.143 48.4648ZM142.838 51.5H125.63V52.5H142.838V51.5ZM134.846 44.58H142.406V43.58H134.846V44.58ZM142.406 44.58C146.675 44.58 150.105 43.9023 152.655 42.5023L152.174 41.6257C149.828 42.9137 146.586 43.58 142.406 43.58V44.58ZM152.661 42.4986C155.204 41.0531 157.032 39.0007 158.132 36.3517L157.208 35.9683C156.196 38.4073 154.521 40.2909 152.167 41.6294L152.661 42.4986ZM158.133 36.3486C159.22 33.6816 159.754 30.494 159.754 26.8H158.754C158.754 30.402 158.233 33.4544 157.207 35.9714L158.133 36.3486ZM159.754 26.8C159.754 23.153 159.22 19.9897 158.133 17.3233L157.207 17.7006C158.233 20.2183 158.754 23.247 158.754 26.8H159.754ZM158.133 17.3233C157.035 14.6268 155.206 12.5484 152.661 11.1014L152.167 11.9706C154.518 13.3076 156.194 15.2132 157.207 17.7006L158.133 17.3233ZM152.661 11.1014C150.11 9.65032 146.677 8.948 142.406 8.948V9.948C146.584 9.948 149.823 10.6377 152.167 11.9706L152.661 11.1014ZM142.406 8.948H134.846V9.948H142.406V8.948ZM134.346 9.448V44.08H135.346V9.448H134.346ZM12.264 143.552L12.01 143.983L12.0124 143.984L12.264 143.552ZM3.408 134.408L2.96737 134.644L2.97092 134.651L3.408 134.408ZM3.408 107.264L2.96966 107.023L2.96864 107.025L3.408 107.264ZM12.264 98.048L12.0124 97.6159L12.01 97.6173L12.264 98.048ZM38.688 98.048L38.9396 97.6159L38.9396 97.6159L38.688 98.048ZM47.544 107.264L47.1034 107.5L47.1046 107.503L47.544 107.264ZM47.544 134.408L47.9834 134.647L47.9846 134.644L47.544 134.408ZM38.688 143.552L38.9396 143.984L38.9396 143.984L38.688 143.552ZM36.96 133.832L36.59 133.496L36.5872 133.499L36.96 133.832ZM36.96 107.768L36.5872 108.101L36.59 108.104L36.96 107.768ZM13.992 107.768L14.362 108.104L14.362 108.104L13.992 107.768ZM13.992 133.832L14.362 133.496L14.362 133.496L13.992 133.832ZM25.512 146.364C20.5471 146.364 16.2205 145.277 12.5156 143.12L12.0124 143.984C15.8915 146.243 20.3969 147.364 25.512 147.364V146.364ZM12.518 143.121C8.8525 140.96 5.96291 137.977 3.84508 134.165L2.97092 134.651C5.17309 138.615 8.1875 141.728 12.01 143.983L12.518 143.121ZM3.84858 134.172C1.78108 130.319 0.74 125.866 0.74 120.8H-0.26C-0.26 126.006 0.81092 130.625 2.96742 134.644L3.84858 134.172ZM0.74 120.8C0.74 115.734 1.78113 111.306 3.84736 107.503L2.96864 107.025C0.81087 110.998 -0.26 115.594 -0.26 120.8H0.74ZM3.84633 107.505C5.96458 103.645 8.85404 100.639 12.518 98.4787L12.01 97.6173C8.18596 99.8725 5.17142 103.011 2.96967 107.023L3.84633 107.505ZM12.5156 98.4801C16.2205 96.3228 20.5471 95.236 25.512 95.236V94.236C20.3969 94.236 15.8915 95.3572 12.0124 97.6159L12.5156 98.4801ZM25.512 95.236C30.428 95.236 34.7308 96.3224 38.4364 98.4801L38.9396 97.6159C35.0612 95.3576 30.58 94.236 25.512 94.236V95.236ZM38.4364 98.4801C42.147 100.641 45.0343 103.644 47.1034 107.5L47.9846 107.028C45.8297 103.012 42.813 99.8713 38.9396 97.6159L38.4364 98.4801ZM47.1046 107.503C49.1709 111.306 50.212 115.734 50.212 120.8H51.212C51.212 115.594 50.1411 110.998 47.9834 107.025L47.1046 107.503ZM50.212 120.8C50.212 125.866 49.1709 130.319 47.1034 134.172L47.9846 134.644C50.1411 130.625 51.212 126.006 51.212 120.8H50.212ZM47.1046 134.169C45.036 137.978 42.1486 140.958 38.4364 143.12L38.9396 143.984C42.8114 141.73 45.828 138.614 47.9834 134.647L47.1046 134.169ZM38.4364 143.12C34.7308 145.278 30.428 146.364 25.512 146.364V147.364C30.58 147.364 35.0612 146.242 38.9396 143.984L38.4364 143.12ZM25.512 139.084C30.4338 139.084 34.3931 137.454 37.3328 134.165L36.5872 133.499C33.8629 136.546 30.1902 138.084 25.512 138.084V139.084ZM37.33 134.168C40.3156 130.884 41.78 126.407 41.78 120.8H40.78C40.78 126.233 39.3644 130.444 36.59 133.496L37.33 134.168ZM41.78 120.8C41.78 115.193 40.3156 110.716 37.33 107.432L36.59 108.104C39.3644 111.156 40.78 115.367 40.78 120.8H41.78ZM37.3328 107.435C34.3931 104.146 30.4338 102.516 25.512 102.516V103.516C30.1902 103.516 33.8629 105.054 36.5872 108.101L37.3328 107.435ZM25.512 102.516C20.5901 102.516 16.6088 104.146 13.622 107.432L14.362 108.104C17.1352 105.054 20.8339 103.516 25.512 103.516V102.516ZM13.622 107.432C10.6364 110.716 9.172 115.193 9.172 120.8H10.172C10.172 115.367 11.5876 111.156 14.362 108.104L13.622 107.432ZM9.172 120.8C9.172 126.407 10.6364 130.884 13.622 134.168L14.362 133.496C11.5876 130.444 10.172 126.233 10.172 120.8H9.172ZM13.622 134.168C16.6088 137.454 20.5901 139.084 25.512 139.084V138.084C20.8339 138.084 17.1352 136.546 14.362 133.496L13.622 134.168ZM57.6251 146H57.1251V146.5H57.6251V146ZM57.6251 95.6V95.1H57.1251V95.6H57.6251ZM68.5691 95.6L69.0159 95.3756L68.8775 95.1H68.5691V95.6ZM84.6251 127.568L84.1783 127.792L84.6282 128.688L85.0731 127.79L84.6251 127.568ZM100.465 95.6V95.1H100.155L100.017 95.378L100.465 95.6ZM111.409 95.6H111.909V95.1H111.409V95.6ZM111.409 146V146.5H111.909V146H111.409ZM102.193 146H101.693V146.5H102.193V146ZM102.193 111.224H102.693L101.748 110.997L102.193 111.224ZM88.1531 138.8V139.3H88.4596L88.5987 139.027L88.1531 138.8ZM80.8811 138.8L80.4356 139.027L80.5746 139.3H80.8811V138.8ZM66.8411 111.224L67.2867 110.997L66.3411 111.224H66.8411ZM66.8411 146V146.5H67.3411V146H66.8411ZM58.1251 146V95.6H57.1251V146H58.1251ZM57.6251 96.1H68.5691V95.1H57.6251V96.1ZM68.1223 95.8244L84.1783 127.792L85.0719 127.344L69.0159 95.3756L68.1223 95.8244ZM85.0731 127.79L100.913 95.822L100.017 95.378L84.1771 127.346L85.0731 127.79ZM100.465 96.1H111.409V95.1H100.465V96.1ZM110.909 95.6V146H111.909V95.6H110.909ZM111.409 145.5H102.193V146.5H111.409V145.5ZM102.693 146V111.224H101.693V146H102.693ZM101.748 110.997L87.7076 138.573L88.5987 139.027L102.639 111.451L101.748 110.997ZM88.1531 138.3H80.8811V139.3H88.1531V138.3ZM81.3267 138.573L67.2867 110.997L66.3956 111.451L80.4356 139.027L81.3267 138.573ZM66.3411 111.224V146H67.3411V111.224H66.3411ZM66.8411 145.5H57.6251V146.5H66.8411V145.5ZM116.724 146L116.254 145.828L116.008 146.5H116.724V146ZM135.156 95.6V95.1H134.806L134.686 95.4283L135.156 95.6ZM145.524 95.6L145.993 95.4283L145.873 95.1H145.524V95.6ZM163.956 146V146.5H164.671L164.425 145.828L163.956 146ZM154.164 146L153.691 146.163L153.807 146.5H154.164V146ZM150.132 134.336L150.604 134.173L150.488 133.836H150.132V134.336ZM130.476 134.336V133.836H130.122L130.004 134.17L130.476 134.336ZM126.372 146V146.5H126.726L126.843 146.166L126.372 146ZM132.996 127.136L132.523 126.972L132.293 127.636H132.996V127.136ZM147.612 127.136V127.636H148.317L148.083 126.971L147.612 127.136ZM140.268 106.184L140.739 106.019L140.265 104.666L139.795 106.02L140.268 106.184ZM117.193 146.172L135.625 95.7717L134.686 95.4283L116.254 145.828L117.193 146.172ZM135.156 96.1H145.524V95.1H135.156V96.1ZM145.054 95.7717L163.486 146.172L164.425 145.828L145.993 95.4283L145.054 95.7717ZM163.956 145.5H154.164V146.5H163.956V145.5ZM154.636 145.837L150.604 134.173L149.659 134.499L153.691 146.163L154.636 145.837ZM150.132 133.836H130.476V134.836H150.132V133.836ZM130.004 134.17L125.9 145.834L126.843 146.166L130.947 134.502L130.004 134.17ZM126.372 145.5H116.724V146.5H126.372V145.5ZM132.996 127.636H147.612V126.636H132.996V127.636ZM148.083 126.971L140.739 106.019L139.796 106.349L147.14 127.301L148.083 126.971ZM139.795 106.02L132.523 126.972L133.468 127.3L140.74 106.348L139.795 106.02ZM169.224 146H168.724V146.5H169.224V146ZM169.224 95.6V95.1H168.724V95.6H169.224ZM197.664 97.688L197.427 98.1286L197.437 98.1336L197.664 97.688ZM203.568 103.232L203.13 103.473L203.132 103.477L203.568 103.232ZM203.064 119.36L202.643 119.09L202.64 119.096L203.064 119.36ZM195.576 124.904L195.416 124.43L194.874 124.613L195.128 125.126L195.576 124.904ZM206.016 146V146.5H206.821L206.464 145.778L206.016 146ZM195.432 146L194.98 146.213L195.115 146.5H195.432V146ZM186.072 126.128L186.524 125.915L186.389 125.628H186.072V126.128ZM178.44 126.128V125.628H177.94V126.128H178.44ZM178.44 146V146.5H178.94V146H178.44ZM178.44 119.36H177.94V119.86H178.44V119.36ZM193.92 117.128L193.561 116.78L193.561 116.78L193.92 117.128ZM193.92 105.464L193.56 105.812L193.566 105.818L193.92 105.464ZM178.44 103.304V102.804H177.94V103.304H178.44ZM169.724 146V95.6H168.724V146H169.724ZM169.224 96.1H187.728V95.1H169.224V96.1ZM187.728 96.1C191.707 96.1 194.93 96.7873 197.427 98.1285L197.901 97.2475C195.214 95.8047 191.813 95.1 187.728 95.1V96.1ZM197.437 98.1336C199.998 99.437 201.887 101.218 203.13 103.473L204.006 102.991C202.657 100.542 200.61 98.627 197.891 97.2424L197.437 98.1336ZM203.132 103.477C204.383 105.701 205.012 108.184 205.012 110.936H206.012C206.012 108.024 205.345 105.371 204.004 102.987L203.132 103.477ZM205.012 110.936C205.012 113.914 204.223 116.628 202.643 119.09L203.485 119.63C205.169 117.004 206.012 114.102 206.012 110.936H205.012ZM202.64 119.096C201.128 121.523 198.737 123.308 195.416 124.43L195.736 125.378C199.231 124.196 201.832 122.285 203.488 119.624L202.64 119.096ZM195.128 125.126L205.568 146.222L206.464 145.778L196.024 124.682L195.128 125.126ZM206.016 145.5H195.432V146.5H206.016V145.5ZM195.884 145.787L186.524 125.915L185.62 126.341L194.98 146.213L195.884 145.787ZM186.072 125.628H178.44V126.628H186.072V125.628ZM177.94 126.128V146H178.94V126.128H177.94ZM178.44 145.5H169.224V146.5H178.44V145.5ZM178.44 119.86H187.152V118.86H178.44V119.86ZM187.152 119.86C190.294 119.86 192.708 119.1 194.279 117.476L193.561 116.78C192.252 118.132 190.154 118.86 187.152 118.86V119.86ZM194.279 117.476C195.826 115.878 196.58 113.776 196.58 111.224H195.58C195.58 113.568 194.894 115.402 193.561 116.78L194.279 117.476ZM196.58 111.224C196.58 108.717 195.824 106.661 194.274 105.11L193.566 105.818C194.896 107.147 195.58 108.931 195.58 111.224H196.58ZM194.279 105.116C192.751 103.535 190.307 102.804 187.08 102.804V103.804C190.189 103.804 192.305 104.513 193.561 105.812L194.279 105.116ZM187.08 102.804H178.44V103.804H187.08V102.804ZM177.94 103.304V119.36H178.94V103.304H177.94Z" fill="black"/>
<defs>
<filter id="filter0_i_1_8" x="0.095993" y="0.735992" width="205.92" height="150.128" filterUnits="userSpaceOnUse" color-interpolation-filters="sRGB">
<feFlood flood-opacity="0" result="BackgroundImageFix"/>
<feBlend mode="normal" in="SourceGraphic" in2="BackgroundImageFix" result="shape"/>
<feColorMatrix in="SourceAlpha" type="matrix" values="0 0 0 0 0 0 0 0 0 0 0 0 0 0 0 0 0 0 127 0" result="hardAlpha"/>
<feOffset dy="4"/>
<feGaussianBlur stdDeviation="2"/>
<feComposite in2="hardAlpha" operator="arithmetic" k2="-1" k3="1"/>
<feColorMatrix type="matrix" values="0 0 0 0 0 0 0 0 0 0 0 0 0 0 0 0 0 0 0.25 0"/>
<feBlend mode="normal" in2="shape" result="effect1_innerShadow_1_8"/>
</filter>
<radialGradient id="paint0_angular_1_8" cx="0" cy="0" r="1" gradientUnits="userSpaceOnUse" gradientTransform="translate(104 74) rotate(90) scale(94 107)">
<stop offset="0.297457" stop-color="#A500B3" stop-opacity="0.393424"/>
<stop offset="0.326189" stop-color="#FA00FF"/>
<stop offset="1" stop-opacity="0"/>
</radialGradient>
<linearGradient id="paint1_linear_1_8" x1="104" y1="-20" x2="104" y2="168" gradientUnits="userSpaceOnUse">
<stop offset="0.225594" stop-color="#EB09FF" stop-opacity="0.64"/>
<stop offset="0.682994" stop-opacity="0"/>
<stop offset="0.9999" stop-color="#EB00FF"/>
<stop offset="1" stop-opacity="0.8"/>
</linearGradient>
<radialGradient id="paint2_angular_1_8" cx="0" cy="0" r="1" gradientUnits="userSpaceOnUse" gradientTransform="translate(104 74) rotate(90) scale(94 107)">
<stop offset="0.714834" stop-color="#8F00FF" stop-opacity="0.81"/>
<stop offset="1" stop-opacity="0"/>
</radialGradient>
<radialGradient id="paint3_radial_1_8" cx="0" cy="0" r="1" gradientUnits="userSpaceOnUse" gradientTransform="translate(104 74) rotate(90) scale(94 107)">
<stop offset="0.0657864" stop-color="#0D0B8C" stop-opacity="0.71"/>
<stop offset="0.996816" stop-color="#00BDF8" stop-opacity="0.56"/>
<stop offset="1" stop-opacity="0"/>
</radialGradient>
</defs>
</svg>
