<svg width="138" height="98" viewBox="0 0 138 98" fill="none" xmlns="http://www.w3.org/2000/svg">
<g filter="url(#filter0_i_1_8)">
<path d="M12.736 35.576C10.272 35.576 8.096 35.16 6.208 34.328C4.32 33.464 2.832 32.248 1.744 30.68C0.656 29.08 0.0960001 27.144 0.0640001 24.872H6.544C6.608 26.44 7.168 27.768 8.224 28.856C9.312 29.912 10.8 30.44 12.688 30.44C14.32 30.44 15.616 30.056 16.576 29.288C17.536 28.488 18.016 27.432 18.016 26.12C18.016 24.744 17.584 23.672 16.72 22.904C15.888 22.136 14.768 21.512 13.36 21.032C11.952 20.552 10.448 20.04 8.848 19.496C6.256 18.6 4.272 17.448 2.896 16.04C1.552 14.632 0.88 12.76 0.88 10.424C0.848 8.44 1.312 6.744 2.272 5.336C3.264 3.896 4.608 2.792 6.304 2.024C8 1.224 9.952 0.823999 12.16 0.823999C14.4 0.823999 16.368 1.224 18.064 2.024C19.792 2.824 21.136 3.944 22.096 5.384C23.088 6.824 23.616 8.536 23.68 10.52H17.104C17.072 9.336 16.608 8.296 15.712 7.4C14.848 6.472 13.632 6.008 12.064 6.008C10.72 5.976 9.584 6.312 8.656 7.016C7.76 7.688 7.312 8.68 7.312 9.992C7.312 11.112 7.664 12.008 8.368 12.68C9.072 13.32 10.032 13.864 11.248 14.312C12.464 14.76 13.856 15.24 15.424 15.752C17.088 16.328 18.608 17 19.984 17.768C21.36 18.536 22.464 19.56 23.296 20.84C24.128 22.088 24.544 23.704 24.544 25.688C24.544 27.448 24.096 29.08 23.2 30.584C22.304 32.088 20.976 33.304 19.216 34.232C17.456 35.128 15.296 35.576 12.736 35.576Z" fill="#DB00FF" fill-opacity="0.38"/>
<path d="M36.3235 35V23.048L25.0435 1.4H32.0035L39.4435 16.904L46.8355 1.4H53.6995L42.4675 23.048V35H36.3235Z" fill="url(#paint0_linear_1_8)"/>
<path d="M56.8195 35V1.4H78.7555V6.344H62.9635V15.56H77.3155V20.36H62.9635V30.056H78.7555V35H56.8195Z" fill="url(#paint1_angular_1_8)"/>
<path d="M83.7535 35V1.4H95.2255C99.1615 1.4 102.394 2.104 104.922 3.512C107.482 4.888 109.37 6.84 110.586 9.368C111.834 11.864 112.458 14.808 112.458 18.2C112.458 21.592 111.834 24.552 110.586 27.08C109.37 29.576 107.482 31.528 104.922 32.936C102.394 34.312 99.1615 35 95.2255 35H83.7535ZM89.8975 29.72H94.9375C97.7535 29.72 99.9775 29.272 101.61 28.376C103.242 27.448 104.41 26.136 105.114 24.44C105.818 22.712 106.17 20.632 106.17 18.2C106.17 15.8 105.818 13.736 105.114 12.008C104.41 10.28 103.242 8.952 101.61 8.024C99.9775 7.096 97.7535 6.632 94.9375 6.632H89.8975V29.72Z" fill="url(#paint2_radial_1_8)"/>
<path d="M17.008 97.576C13.648 97.576 10.704 96.84 8.176 95.368C5.68 93.896 3.712 91.864 2.272 89.272C0.864 86.648 0.16 83.624 0.16 80.2C0.16 76.776 0.864 73.768 2.272 71.176C3.712 68.552 5.68 66.504 8.176 65.032C10.704 63.56 13.648 62.824 17.008 62.824C20.336 62.824 23.264 63.56 25.792 65.032C28.32 66.504 30.288 68.552 31.696 71.176C33.104 73.768 33.808 76.776 33.808 80.2C33.808 83.624 33.104 86.648 31.696 89.272C30.288 91.864 28.32 93.896 25.792 95.368C23.264 96.84 20.336 97.576 17.008 97.576ZM17.008 92.056C20.208 92.056 22.752 91 24.64 88.888C26.56 86.776 27.52 83.88 27.52 80.2C27.52 76.52 26.56 73.624 24.64 71.512C22.752 69.4 20.208 68.344 17.008 68.344C13.808 68.344 11.248 69.4 9.328 71.512C7.408 73.624 6.448 76.52 6.448 80.2C6.448 83.88 7.408 86.776 9.328 88.888C11.248 91 13.808 92.056 17.008 92.056ZM38.4167 97V63.4H45.7127L56.4167 84.712L66.9768 63.4H74.2728V97H68.1287V73.816L58.7687 92.2H53.9207L44.5607 73.816V97H38.4167ZM77.8157 97L90.1037 63.4H97.0157L109.304 97H102.776L100.088 89.224H86.9837L84.2477 97H77.8157ZM88.6637 84.424H98.4077L93.5117 70.456L88.6637 84.424ZM112.816 97V63.4H125.152C127.84 63.4 130.048 63.864 131.776 64.792C133.536 65.688 134.848 66.92 135.712 68.488C136.576 70.024 137.008 71.736 137.008 73.624C137.008 75.672 136.464 77.544 135.376 79.24C134.32 80.936 132.656 82.168 130.384 82.936L137.344 97H130.288L124.048 83.752H118.96V97H112.816ZM118.96 79.24H124.768C126.816 79.24 128.32 78.744 129.28 77.752C130.24 76.76 130.72 75.448 130.72 73.816C130.72 72.216 130.24 70.936 129.28 69.976C128.352 69.016 126.832 68.536 124.72 68.536H118.96V79.24Z" fill="white"/>
</g>
<path d="M6.208 34.328L5.99992 34.7827L6.00637 34.7855L6.208 34.328ZM1.744 30.68L1.33052 30.9612L1.33321 30.965L1.744 30.68ZM0.0640001 24.872V24.372H-0.443092L-0.43595 24.879L0.0640001 24.872ZM6.544 24.872L7.04358 24.8516L7.02401 24.372H6.544V24.872ZM8.224 28.856L7.86521 29.2042L7.87041 29.2096L7.87576 29.2148L8.224 28.856ZM16.576 29.288L16.8884 29.6785L16.8961 29.6721L16.576 29.288ZM16.72 22.904L16.3808 23.2715L16.3878 23.2777L16.72 22.904ZM13.36 21.032L13.1987 21.5053L13.1987 21.5053L13.36 21.032ZM8.848 19.496L8.68464 19.9686L8.68705 19.9694L8.848 19.496ZM2.896 16.04L2.5343 16.3853L2.53841 16.3895L2.896 16.04ZM0.88 10.424L1.38007 10.424L1.37994 10.4159L0.88 10.424ZM2.272 5.336L1.86024 5.05234L1.85889 5.05433L2.272 5.336ZM6.304 2.024L6.51028 2.47953L6.51731 2.47621L6.304 2.024ZM18.064 2.024L17.8507 2.47623L17.8539 2.47773L18.064 2.024ZM22.096 5.384L21.6799 5.66138L21.6842 5.66765L22.096 5.384ZM23.68 10.52V11.02H24.1964L24.1797 10.5039L23.68 10.52ZM17.104 10.52L16.6042 10.5335L16.6173 11.02H17.104V10.52ZM15.712 7.4L15.3461 7.74071L15.3521 7.74724L15.3584 7.75355L15.712 7.4ZM12.064 6.008L12.0521 6.508H12.064V6.008ZM8.656 7.016L8.95601 7.41601L8.95819 7.41435L8.656 7.016ZM8.368 12.68L8.02266 13.0418L8.03166 13.05L8.368 12.68ZM11.248 14.312L11.4209 13.8428L11.4209 13.8428L11.248 14.312ZM15.424 15.752L15.5876 15.2794L15.5792 15.2767L15.424 15.752ZM19.984 17.768L20.2277 17.3314L20.2277 17.3314L19.984 17.768ZM23.296 20.84L22.8768 21.1125L22.88 21.1173L23.296 20.84ZM23.2 30.584L23.6296 30.8399L23.6296 30.8399L23.2 30.584ZM19.216 34.232L19.4429 34.6776L19.4492 34.6743L19.216 34.232ZM12.736 35.076C10.3282 35.076 8.22299 34.6696 6.40963 33.8705L6.00637 34.7855C7.96901 35.6504 10.2158 36.076 12.736 36.076V35.076ZM6.41606 33.8733C4.60222 33.0433 3.1872 31.8828 2.15479 30.395L1.33321 30.965C2.4768 32.6132 4.03778 33.8847 5.99994 34.7827L6.41606 33.8733ZM2.15746 30.3988C1.13354 28.8931 0.594817 27.0565 0.56395 24.865L-0.43595 24.879C-0.402817 27.2315 0.178462 29.2669 1.33054 30.9612L2.15746 30.3988ZM0.0640001 25.372H6.544V24.372H0.0640001V25.372ZM6.04442 24.8924C6.11324 26.5785 6.72032 28.0247 7.86521 29.2042L8.58279 28.5078C7.61568 27.5113 7.10276 26.3015 7.04358 24.8516L6.04442 24.8924ZM7.87576 29.2148C9.07866 30.3823 10.7035 30.94 12.688 30.94V29.94C10.8965 29.94 9.54534 29.4417 8.57224 28.4972L7.87576 29.2148ZM12.688 30.94C14.3963 30.94 15.8144 30.5376 16.8883 29.6784L16.2637 28.8976C15.4176 29.5744 14.2437 29.94 12.688 29.94V30.94ZM16.8961 29.6721C17.9765 28.7718 18.516 27.5719 18.516 26.12H17.516C17.516 27.2921 17.0955 28.2042 16.2559 28.9039L16.8961 29.6721ZM18.516 26.12C18.516 24.6309 18.0433 23.4113 17.0522 22.5303L16.3878 23.2777C17.1247 23.9327 17.516 24.8571 17.516 26.12H18.516ZM17.0591 22.5366C16.1625 21.7089 14.9756 21.0545 13.5213 20.5587L13.1987 21.5053C14.5604 21.9695 15.6135 22.5631 16.3809 23.2714L17.0591 22.5366ZM13.5213 20.5587C12.1132 20.0787 10.6091 19.5667 9.00895 19.0226L8.68705 19.9694C10.2869 20.5133 11.7908 21.0253 13.1987 21.5053L13.5213 20.5587ZM9.01136 19.0234C6.46562 18.1434 4.55825 17.0255 3.25359 15.6905L2.53841 16.3895C3.98575 17.8705 6.04638 19.0566 8.68465 19.9686L9.01136 19.0234ZM3.25768 15.6948C2.0197 14.3978 1.38 12.6588 1.38 10.424H0.38C0.38 12.8612 1.0843 14.8662 2.53432 16.3852L3.25768 15.6948ZM1.37994 10.4159C1.34932 8.51767 1.7924 6.92698 2.68511 5.61767L1.85889 5.05433C0.831596 6.56102 0.346682 8.36233 0.380065 10.4321L1.37994 10.4159ZM2.68375 5.61965C3.62079 4.25944 4.89153 3.21248 6.51025 2.47948L6.09775 1.56852C4.32447 2.37151 2.90721 3.53256 1.86025 5.05235L2.68375 5.61965ZM6.51731 2.47621C8.13578 1.71278 10.0128 1.324 12.16 1.324V0.323999C9.89122 0.323999 7.86422 0.735213 6.09069 1.57178L6.51731 2.47621ZM12.16 1.324C14.3404 1.324 16.2331 1.71321 17.8507 2.47621L18.2773 1.57178C16.5029 0.734787 14.4596 0.323999 12.16 0.323999V1.324ZM17.8539 2.47773C19.507 3.24304 20.7761 4.30556 21.68 5.66135L22.512 5.10665C21.4959 3.58244 20.077 2.40496 18.2741 1.57026L17.8539 2.47773ZM21.6842 5.66765C22.6148 7.01845 23.1189 8.63457 23.1803 10.5361L24.1797 10.5039C24.1131 8.43742 23.5612 6.62955 22.5078 5.10035L21.6842 5.66765ZM23.68 10.02H17.104V11.02H23.68V10.02ZM17.6038 10.5065C17.5681 9.18512 17.0451 8.02597 16.0656 7.04644L15.3584 7.75355C16.1709 8.56602 16.5759 9.48687 16.6042 10.5335L17.6038 10.5065ZM16.0779 7.05929C15.0978 6.00651 13.7356 5.508 12.064 5.508V6.508C13.5284 6.508 14.5982 6.93749 15.3461 7.74071L16.0779 7.05929ZM12.0759 5.50814C10.637 5.47388 9.38557 5.83494 8.35381 6.61765L8.95819 7.41435C9.78243 6.78906 10.803 6.47812 12.0521 6.50786L12.0759 5.50814ZM8.356 6.616C7.31151 7.39937 6.812 8.55318 6.812 9.992H7.812C7.812 8.80682 8.20849 7.97663 8.956 7.416L8.356 6.616ZM6.812 9.992C6.812 11.2261 7.20474 12.2608 8.02276 13.0417L8.71324 12.3183C8.12326 11.7552 7.812 10.9979 7.812 9.992H6.812ZM8.03166 13.05C8.79712 13.7458 9.81926 14.3185 11.0751 14.7812L11.4209 13.8428C10.2447 13.4095 9.34688 12.8942 8.70434 12.31L8.03166 13.05ZM11.0751 14.7812C12.2983 15.2318 13.6964 15.7139 15.2688 16.2273L15.5792 15.2767C14.0156 14.7661 12.6297 14.2882 11.4209 13.8428L11.0751 14.7812ZM15.2604 16.2245C16.8999 16.792 18.3927 17.4524 19.7403 18.2046L20.2277 17.3314C18.8233 16.5476 17.2761 15.864 15.5876 15.2795L15.2604 16.2245ZM19.7403 18.2046C21.0477 18.9343 22.0905 19.9029 22.8768 21.1125L23.7152 20.5675C22.8375 19.2171 21.6723 18.1377 20.2277 17.3314L19.7403 18.2046ZM22.88 21.1173C23.6421 22.2605 24.044 23.7714 24.044 25.688H25.044C25.044 23.6366 24.6139 21.9155 23.712 20.5626L22.88 21.1173ZM24.044 25.688C24.044 27.3584 23.6201 28.9019 22.7705 30.3281L23.6296 30.8399C24.5719 29.2581 25.044 27.5376 25.044 25.688H24.044ZM22.7705 30.3281C21.9277 31.7427 20.6728 32.8986 18.9828 33.7897L19.4492 34.6743C21.2792 33.7094 22.6803 32.4333 23.6296 30.8399L22.7705 30.3281ZM18.9892 33.7864C17.3171 34.6376 15.2397 35.076 12.736 35.076V36.076C15.3523 36.076 17.5949 35.6184 19.4428 34.6776L18.9892 33.7864ZM36.3235 35H35.8235V35.5H36.3235V35ZM36.3235 23.048H36.8235V22.9255L36.7669 22.817L36.3235 23.048ZM25.0435 1.4V0.899998H24.2192L24.6001 1.63105L25.0435 1.4ZM32.0035 1.4L32.4543 1.18368L32.3182 0.899998H32.0035V1.4ZM39.4435 16.904L38.9927 17.1203L39.445 18.0627L39.8948 17.1192L39.4435 16.904ZM46.8355 1.4V0.899998H46.52L46.3842 1.18481L46.8355 1.4ZM53.6995 1.4L54.1433 1.63027L54.5222 0.899998H53.6995V1.4ZM42.4675 23.048L42.0237 22.8177L41.9675 22.926V23.048H42.4675ZM42.4675 35V35.5H42.9675V35H42.4675ZM36.8235 35V23.048H35.8235V35H36.8235ZM36.7669 22.817L25.4869 1.16895L24.6001 1.63105L35.8801 23.279L36.7669 22.817ZM25.0435 1.9H32.0035V0.899998H25.0435V1.9ZM31.5527 1.61632L38.9927 17.1203L39.8943 16.6877L32.4543 1.18368L31.5527 1.61632ZM39.8948 17.1192L47.2868 1.61518L46.3842 1.18481L38.9922 16.6888L39.8948 17.1192ZM46.8355 1.9H53.6995V0.899998H46.8355V1.9ZM53.2557 1.16972L42.0237 22.8177L42.9113 23.2783L54.1433 1.63027L53.2557 1.16972ZM41.9675 23.048V35H42.9675V23.048H41.9675ZM42.4675 34.5H36.3235V35.5H42.4675V34.5ZM56.8195 35H56.3195V35.5H56.8195V35ZM56.8195 1.4V0.899998H56.3195V1.4H56.8195ZM78.7555 1.4H79.2555V0.899998H78.7555V1.4ZM78.7555 6.344V6.844H79.2555V6.344H78.7555ZM62.9635 6.344V5.844H62.4635V6.344H62.9635ZM62.9635 15.56H62.4635V16.06H62.9635V15.56ZM77.3155 15.56H77.8155V15.06H77.3155V15.56ZM77.3155 20.36V20.86H77.8155V20.36H77.3155ZM62.9635 20.36V19.86H62.4635V20.36H62.9635ZM62.9635 30.056H62.4635V30.556H62.9635V30.056ZM78.7555 30.056H79.2555V29.556H78.7555V30.056ZM78.7555 35V35.5H79.2555V35H78.7555ZM57.3195 35V1.4H56.3195V35H57.3195ZM56.8195 1.9H78.7555V0.899998H56.8195V1.9ZM78.2555 1.4V6.344H79.2555V1.4H78.2555ZM78.7555 5.844H62.9635V6.844H78.7555V5.844ZM62.4635 6.344V15.56H63.4635V6.344H62.4635ZM62.9635 16.06H77.3155V15.06H62.9635V16.06ZM76.8155 15.56V20.36H77.8155V15.56H76.8155ZM77.3155 19.86H62.9635V20.86H77.3155V19.86ZM62.4635 20.36V30.056H63.4635V20.36H62.4635ZM62.9635 30.556H78.7555V29.556H62.9635V30.556ZM78.2555 30.056V35H79.2555V30.056H78.2555ZM78.7555 34.5H56.8195V35.5H78.7555V34.5ZM83.7535 35H83.2535V35.5H83.7535V35ZM83.7535 1.4V0.899998H83.2535V1.4H83.7535ZM104.922 3.512L104.678 3.94887L104.685 3.95241L104.922 3.512ZM110.586 9.368L110.135 9.58476L110.138 9.5916L110.586 9.368ZM110.586 27.08L110.137 26.8587L110.136 26.861L110.586 27.08ZM104.922 32.936L105.161 33.3752L105.162 33.3741L104.922 32.936ZM89.8975 29.72H89.3975V30.22H89.8975V29.72ZM101.61 28.376L101.85 28.8143L101.857 28.8106L101.61 28.376ZM105.114 24.44L105.575 24.6317L105.577 24.6286L105.114 24.44ZM105.114 12.008L104.65 12.1966L104.65 12.1966L105.114 12.008ZM89.8975 6.632V6.132H89.3975V6.632H89.8975ZM84.2535 35V1.4H83.2535V35H84.2535ZM83.7535 1.9H95.2255V0.899998H83.7535V1.9ZM95.2255 1.9C99.1057 1.9 102.247 2.59451 104.678 3.94882L105.165 3.07518C102.54 1.61349 99.2173 0.899998 95.2255 0.899998V1.9ZM104.685 3.95241C107.155 5.28027 108.966 7.15564 110.135 9.58473L111.036 9.15126C109.773 6.52436 107.808 4.49572 105.158 3.07159L104.685 3.95241ZM110.138 9.5916C111.345 12.0048 111.958 14.8691 111.958 18.2H112.958C112.958 14.7469 112.322 11.7232 111.033 9.14439L110.138 9.5916ZM111.958 18.2C111.958 21.5306 111.345 24.4121 110.137 26.8587L111.034 27.3013C112.322 24.6919 112.958 21.6534 112.958 18.2H111.958ZM110.136 26.861C108.968 29.2592 107.155 31.1369 104.681 32.4979L105.162 33.3741C107.808 31.9191 109.771 29.8928 111.035 27.299L110.136 26.861ZM104.682 32.4968C102.25 33.8209 99.1073 34.5 95.2255 34.5V35.5C99.2157 35.5 102.537 34.8031 105.161 33.3752L104.682 32.4968ZM95.2255 34.5H83.7535V35.5H95.2255V34.5ZM89.8975 30.22H94.9375V29.22H89.8975V30.22ZM94.9375 30.22C97.798 30.22 100.116 29.7663 101.85 28.8143L101.369 27.9377C99.8389 28.7777 97.709 29.22 94.9375 29.22V30.22ZM101.857 28.8106C103.583 27.8291 104.828 26.4327 105.575 24.6317L104.652 24.2483C103.991 25.8393 102.9 27.0669 101.362 27.9414L101.857 28.8106ZM105.577 24.6286C106.311 22.8256 106.67 20.678 106.67 18.2H105.67C105.67 20.586 105.324 22.5984 104.65 24.2514L105.577 24.6286ZM106.67 18.2C106.67 15.753 106.311 13.6217 105.577 11.8193L104.65 12.1966C105.324 13.8503 105.67 15.847 105.67 18.2H106.67ZM105.577 11.8194C104.83 9.98676 103.586 8.57244 101.857 7.58935L101.362 8.45864C102.897 9.33156 103.989 10.5732 104.65 12.1966L105.577 11.8194ZM101.857 7.58935C100.121 6.60232 97.8001 6.132 94.9375 6.132V7.132C97.7069 7.132 99.8342 7.58968 101.362 8.45864L101.857 7.58935ZM94.9375 6.132H89.8975V7.132H94.9375V6.132ZM89.3975 6.632V29.72H90.3975V6.632H89.3975ZM8.176 95.368L7.922 95.7987L7.92441 95.8001L8.176 95.368ZM2.272 89.272L1.83137 89.5084L1.83492 89.5148L2.272 89.272ZM2.272 71.176L1.83366 70.9354L1.83264 70.9373L2.272 71.176ZM8.176 65.032L7.9244 64.5999L7.92201 64.6013L8.176 65.032ZM25.792 65.032L26.0436 64.5999L26.0436 64.5999L25.792 65.032ZM31.696 71.176L31.2554 71.4124L31.2566 71.4147L31.696 71.176ZM31.696 89.272L32.1354 89.5107L32.1366 89.5084L31.696 89.272ZM25.792 95.368L26.0436 95.8001L26.0436 95.8001L25.792 95.368ZM24.64 88.888L24.27 88.5517L24.2672 88.5548L24.64 88.888ZM24.64 71.512L24.2672 71.8452L24.27 71.8483L24.64 71.512ZM9.328 71.512L9.69797 71.8483L9.69797 71.8483L9.328 71.512ZM9.328 88.888L9.69797 88.5517L9.69797 88.5517L9.328 88.888ZM17.008 97.076C13.7231 97.076 10.8685 96.3572 8.4276 94.9359L7.92441 95.8001C10.5395 97.3228 13.5729 98.076 17.008 98.076V97.076ZM8.42999 94.9373C6.0125 93.5116 4.10691 91.5453 2.70908 89.0292L1.83492 89.5148C3.31709 92.1827 5.3475 94.2804 7.92201 95.7987L8.42999 94.9373ZM2.71258 89.0356C1.34908 86.4945 0.66 83.554 0.66 80.2H-0.34C-0.34 83.694 0.37892 86.8015 1.83142 89.5084L2.71258 89.0356ZM0.66 80.2C0.66 76.8459 1.34913 73.9224 2.71136 71.4147L1.83264 70.9373C0.37887 73.6136 -0.34 76.7061 -0.34 80.2H0.66ZM2.71033 71.4165C4.10858 68.8686 6.01404 66.8875 8.42999 65.4627L7.92201 64.6013C5.34596 66.1205 3.31542 68.2354 1.83367 70.9354L2.71033 71.4165ZM8.4276 65.4641C10.8685 64.0428 13.7231 63.324 17.008 63.324V62.324C13.5729 62.324 10.5395 63.0772 7.92441 64.5999L8.4276 65.4641ZM17.008 63.324C20.26 63.324 23.0988 64.0424 25.5404 65.4641L26.0436 64.5999C23.4292 63.0776 20.412 62.324 17.008 62.324V63.324ZM25.5404 65.4641C27.987 66.8887 29.8903 68.8683 31.2554 71.4124L32.1366 70.9396C30.6857 68.2357 28.653 66.1193 26.0436 64.5999L25.5404 65.4641ZM31.2566 71.4147C32.6189 73.9224 33.308 76.8459 33.308 80.2H34.308C34.308 76.7061 33.5891 73.6136 32.1354 70.9373L31.2566 71.4147ZM33.308 80.2C33.308 83.554 32.6189 86.4945 31.2554 89.0356L32.1366 89.5084C33.5891 86.8015 34.308 83.694 34.308 80.2H33.308ZM31.2566 89.0333C29.892 91.5456 27.9886 93.5104 25.5404 94.9359L26.0436 95.8001C28.6514 94.2816 30.684 92.1824 32.1354 89.5107L31.2566 89.0333ZM25.5404 94.9359C23.0988 96.3576 20.26 97.076 17.008 97.076V98.076C20.412 98.076 23.4292 97.3224 26.0436 95.8001L25.5404 94.9359ZM17.008 92.556C20.3298 92.556 23.0171 91.4537 25.0128 89.2212L24.2672 88.5548C22.4869 90.5463 20.0862 91.556 17.008 91.556V92.556ZM25.01 89.2243C27.0356 86.9961 28.02 83.9673 28.02 80.2H27.02C27.02 83.7927 26.0844 86.5559 24.27 88.5517L25.01 89.2243ZM28.02 80.2C28.02 76.4327 27.0356 73.4039 25.01 71.1757L24.27 71.8483C26.0844 73.8441 27.02 76.6073 27.02 80.2H28.02ZM25.0128 71.1788C23.0171 68.9463 20.3298 67.844 17.008 67.844V68.844C20.0862 68.844 22.4869 69.8537 24.2672 71.8452L25.0128 71.1788ZM17.008 67.844C13.6861 67.844 10.9848 68.9462 8.95803 71.1757L9.69797 71.8483C11.5112 69.8538 13.9299 68.844 17.008 68.844V67.844ZM8.95803 71.1757C6.93238 73.4039 5.948 76.4327 5.948 80.2H6.948C6.948 76.6073 7.88362 73.8441 9.69797 71.8483L8.95803 71.1757ZM5.948 80.2C5.948 83.9673 6.93238 86.9961 8.95803 89.2243L9.69797 88.5517C7.88362 86.5559 6.948 83.7927 6.948 80.2H5.948ZM8.95803 89.2243C10.9848 91.4538 13.6861 92.556 17.008 92.556V91.556C13.9299 91.556 11.5112 90.5462 9.69797 88.5517L8.95803 89.2243ZM38.4167 97H37.9167V97.5H38.4167V97ZM38.4167 63.4V62.9H37.9167V63.4H38.4167ZM45.7127 63.4L46.1596 63.1756L46.0211 62.9H45.7127V63.4ZM56.4167 84.712L55.9699 84.9364L56.4198 85.8321L56.8648 84.934L56.4167 84.712ZM66.9768 63.4V62.9H66.6665L66.5287 63.178L66.9768 63.4ZM74.2728 63.4H74.7728V62.9H74.2728V63.4ZM74.2728 97V97.5H74.7728V97H74.2728ZM68.1287 97H67.6287V97.5H68.1287V97ZM68.1287 73.816H68.6287L67.6832 73.5891L68.1287 73.816ZM58.7687 92.2V92.7H59.0753L59.2143 92.4269L58.7687 92.2ZM53.9207 92.2L53.4752 92.4269L53.6142 92.7H53.9207V92.2ZM44.5607 73.816L45.0063 73.5891L44.0607 73.816H44.5607ZM44.5607 97V97.5H45.0607V97H44.5607ZM38.9167 97V63.4H37.9167V97H38.9167ZM38.4167 63.9H45.7127V62.9H38.4167V63.9ZM45.2659 63.6244L55.9699 84.9364L56.8636 84.4876L46.1596 63.1756L45.2659 63.6244ZM56.8648 84.934L67.4248 63.622L66.5287 63.178L55.9687 84.49L56.8648 84.934ZM66.9768 63.9H74.2728V62.9H66.9768V63.9ZM73.7728 63.4V97H74.7728V63.4H73.7728ZM74.2728 96.5H68.1287V97.5H74.2728V96.5ZM68.6287 97V73.816H67.6287V97H68.6287ZM67.6832 73.5891L58.3232 91.9731L59.2143 92.4269L68.5743 74.0429L67.6832 73.5891ZM58.7687 91.7H53.9207V92.7H58.7687V91.7ZM54.3663 91.9731L45.0063 73.5891L44.1152 74.0429L53.4752 92.4269L54.3663 91.9731ZM44.0607 73.816V97H45.0607V73.816H44.0607ZM44.5607 96.5H38.4167V97.5H44.5607V96.5ZM77.8157 97L77.3462 96.8283L77.1005 97.5H77.8157V97ZM90.1037 63.4V62.9H89.7542L89.6342 63.2283L90.1037 63.4ZM97.0157 63.4L97.4853 63.2283L97.3653 62.9H97.0157V63.4ZM109.304 97V97.5H110.019L109.773 96.8283L109.304 97ZM102.776 97L102.303 97.1634L102.42 97.5H102.776V97ZM100.088 89.224L100.56 89.0606L100.444 88.724H100.088V89.224ZM86.9837 89.224V88.724H86.6296L86.5121 89.058L86.9837 89.224ZM84.2477 97V97.5H84.6019L84.7194 97.166L84.2477 97ZM88.6637 84.424L88.1914 84.2601L87.9609 84.924H88.6637V84.424ZM98.4077 84.424V84.924H99.1128L98.8796 84.2586L98.4077 84.424ZM93.5117 70.456L93.9836 70.2906L93.5094 68.9378L93.0394 70.2921L93.5117 70.456ZM78.2853 97.1717L90.5733 63.5717L89.6342 63.2283L77.3462 96.8283L78.2853 97.1717ZM90.1037 63.9H97.0157V62.9H90.1037V63.9ZM96.5462 63.5717L108.834 97.1717L109.773 96.8283L97.4853 63.2283L96.5462 63.5717ZM109.304 96.5H102.776V97.5H109.304V96.5ZM103.248 96.8366L100.56 89.0606L99.6152 89.3874L102.303 97.1634L103.248 96.8366ZM100.088 88.724H86.9837V89.724H100.088V88.724ZM86.5121 89.058L83.7761 96.834L84.7194 97.166L87.4554 89.39L86.5121 89.058ZM84.2477 96.5H77.8157V97.5H84.2477V96.5ZM88.6637 84.924H98.4077V83.924H88.6637V84.924ZM98.8796 84.2586L93.9836 70.2906L93.0399 70.6214L97.9359 84.5894L98.8796 84.2586ZM93.0394 70.2921L88.1914 84.2601L89.1361 84.5879L93.9841 70.6199L93.0394 70.2921ZM112.816 97H112.316V97.5H112.816V97ZM112.816 63.4V62.9H112.316V63.4H112.816ZM131.776 64.792L131.539 65.2326L131.549 65.2376L131.776 64.792ZM135.712 68.488L135.274 68.7293L135.276 68.7331L135.712 68.488ZM135.376 79.24L134.955 78.97L134.952 78.9757L135.376 79.24ZM130.384 82.936L130.224 82.4623L129.682 82.6454L129.936 83.1578L130.384 82.936ZM137.344 97V97.5H138.149L137.792 96.7782L137.344 97ZM130.288 97L129.836 97.2131L129.971 97.5H130.288V97ZM124.048 83.752L124.5 83.5389L124.365 83.252H124.048V83.752ZM118.96 83.752V83.252H118.46V83.752H118.96ZM118.96 97V97.5H119.46V97H118.96ZM118.96 79.24H118.46V79.74H118.96V79.24ZM129.28 77.752L128.921 77.4043L128.921 77.4043L129.28 77.752ZM129.28 69.976L128.92 70.3236L128.926 70.3296L129.28 69.976ZM118.96 68.536V68.036H118.46V68.536H118.96ZM113.316 97V63.4H112.316V97H113.316ZM112.816 63.9H125.152V62.9H112.816V63.9ZM125.152 63.9C127.787 63.9 129.906 64.3553 131.539 65.2325L132.013 64.3515C130.19 63.3727 127.893 62.9 125.152 62.9V63.9ZM131.549 65.2376C133.23 66.093 134.463 67.258 135.274 68.7293L136.15 68.2467C135.233 66.582 133.842 65.283 132.003 64.3464L131.549 65.2376ZM135.276 68.7331C136.095 70.189 136.508 71.8155 136.508 73.624H137.508C137.508 71.6565 137.057 69.859 136.148 68.2429L135.276 68.7331ZM136.508 73.624C136.508 75.5779 135.991 77.356 134.955 78.97L135.797 79.51C136.937 77.732 137.508 75.7661 137.508 73.624H136.508ZM134.952 78.9757C133.968 80.5547 132.409 81.7237 130.224 82.4623L130.544 83.4097C132.903 82.6123 134.672 81.3173 135.8 79.5043L134.952 78.9757ZM129.936 83.1578L136.896 97.2218L137.792 96.7782L130.832 82.7142L129.936 83.1578ZM137.344 96.5H130.288V97.5H137.344V96.5ZM130.74 96.7869L124.5 83.5389L123.596 83.9651L129.836 97.2131L130.74 96.7869ZM124.048 83.252H118.96V84.252H124.048V83.252ZM118.46 83.752V97H119.46V83.752H118.46ZM118.96 96.5H112.816V97.5H118.96V96.5ZM118.96 79.74H124.768V78.74H118.96V79.74ZM124.768 79.74C126.886 79.74 128.548 79.2277 129.639 78.0997L128.921 77.4043C128.092 78.2603 126.746 78.74 124.768 78.74V79.74ZM129.639 78.0997C130.706 76.9977 131.22 75.5525 131.22 73.816H130.22C130.22 75.3435 129.774 76.5223 128.921 77.4043L129.639 78.0997ZM131.22 73.816C131.22 72.1089 130.704 70.6928 129.634 69.6224L128.926 70.3296C129.776 71.1792 130.22 72.3231 130.22 73.816H131.22ZM129.639 69.6285C128.575 68.5271 126.891 68.036 124.72 68.036V69.036C126.773 69.036 128.129 69.5049 128.921 70.3235L129.639 69.6285ZM124.72 68.036H118.96V69.036H124.72V68.036ZM118.46 68.536V79.24H119.46V68.536H118.46Z" fill="black"/>
<defs>
<filter id="filter0_i_1_8" x="0.0639954" y="0.824005" width="137.28" height="100.752" filterUnits="userSpaceOnUse" color-interpolation-filters="sRGB">
<feFlood flood-opacity="0" result="BackgroundImageFix"/>
<feBlend mode="normal" in="SourceGraphic" in2="BackgroundImageFix" result="shape"/>
<feColorMatrix in="SourceAlpha" type="matrix" values="0 0 0 0 0 0 0 0 0 0 0 0 0 0 0 0 0 0 127 0" result="hardAlpha"/>
<feOffset dy="4"/>
<feGaussianBlur stdDeviation="2"/>
<feComposite in2="hardAlpha" operator="arithmetic" k2="-1" k3="1"/>
<feColorMatrix type="matrix" values="0 0 0 0 0 0 0 0 0 0 0 0 0 0 0 0 0 0 0.25 0"/>
<feBlend mode="normal" in2="shape" result="effect1_innerShadow_1_8"/>
</filter>
<linearGradient id="paint0_linear_1_8" x1="71" y1="-4" x2="71" y2="103" gradientUnits="userSpaceOnUse">
<stop offset="0.225594" stop-color="#EB09FF"/>
<stop offset="0.682994" stop-opacity="0"/>
<stop offset="0.9999" stop-color="#EB00FF"/>
<stop offset="1" stop-opacity="0.8"/>
</linearGradient>
<radialGradient id="paint1_angular_1_8" cx="0" cy="0" r="1" gradientUnits="userSpaceOnUse" gradientTransform="translate(71 49.5) rotate(90) scale(53.5 73)">
<stop offset="0.714834" stop-color="#9105FF" stop-opacity="0.9"/>
<stop offset="1" stop-opacity="0"/>
</radialGradient>
<radialGradient id="paint2_radial_1_8" cx="0" cy="0" r="1" gradientUnits="userSpaceOnUse" gradientTransform="translate(71 49.5) rotate(90) scale(53.5 73)">
<stop offset="0.0657864" stop-color="#2E2AF6" stop-opacity="0.71"/>
<stop offset="0.155208" stop-color="#4788FE" stop-opacity="0.91"/>
<stop offset="0.996816" stop-color="#00BDF8" stop-opacity="0.56"/>
<stop offset="1" stop-opacity="0"/>
</radialGradient>
</defs>
</svg>
